<?xml version="1.0" encoding="UTF-8"?>
<!DOCTYPE svg PUBLIC "-//W3C//DTD SVG 1.1//EN" "http://www.w3.org/Graphics/SVG/1.1/DTD/svg11.dtd">
<!-- Creator: CorelDRAW -->
<svg xmlns="http://www.w3.org/2000/svg" xml:space="preserve" width="210mm" height="297mm" style="shape-rendering:geometricPrecision; text-rendering:geometricPrecision; image-rendering:optimizeQuality; fill-rule:evenodd; clip-rule:evenodd" viewBox="0 0 210 297" xmlns:xlink="http://www.w3.org/1999/xlink">
 <defs>
  <style type="text/css">
   <![CDATA[
    .str2 {stroke:#2F3133;stroke-width:0.1}
    .str1 {stroke:black;stroke-width:0.1;stroke-opacity:0.501961}
    .str0 {stroke:black;stroke-width:0.1}
    .str3 {stroke:black;stroke-width:0.5}
    .fil8 {fill:none}
    .fil0 {fill:white}
    .fil7 {fill:#1F1A17;fill-rule:nonzero}
    .fil5 {fill:#C2C1C1;fill-rule:nonzero}
    .fil6 {fill:white;fill-rule:nonzero}
    .fil4 {fill:black;fill-rule:nonzero}
    .fil2 {fill:#000066;fill-rule:nonzero}
    .fil3 {fill:white;fill-rule:nonzero;fill-opacity:0.501961}
    .fil1 {fill:white;fill-opacity:0.701961}
   ]]>
  </style>
 </defs>
 <g id="Plan_x0020_1">
  <metadata id="CorelCorpID_0Corel-Layer"/>
  <path class="fil0 str0" d="M64.3779 208.77l1.8092 -1.4265c0.4111,-0.1141 1.1575,-0.1489 1.2987,-0.6445 0.6442,-0.1615 0.7672,-2.0871 0.858,-2.6498 0.1307,-0.8102 0.2358,-1.1306 -0.0238,-1.9097 -0.2711,-0.8134 -0.1122,-1.4733 -0.7627,-2.1246 -0.6902,-0.6909 0.4535,-1.5553 0.5958,-2.1245 0.4882,0 1.1139,0.2018 1.6446,0.2625 0.1441,0.0165 1.1552,2.237 1.2155,2.602 0.1312,0.7946 -0.2383,1.7114 0.5958,2.1724 1.136,0.628 1.4709,2.1504 1.9544,3.2465 0.2761,0.6261 0.7834,1.1683 1.0487,1.7665 0.2725,0.6146 0.3371,1.3263 0.5005,1.9813 2.5313,4.4397 2.168,0.2238 5.3149,1.3607 0.4815,0.174 0.0715,1.8127 0.0715,2.2201 0,1.2327 -0.1336,1.0704 -0.8104,1.9813 -0.126,0.1697 0.2503,2.9759 0.1669,3.7479 -0.0704,0.6508 0.5696,2.182 1.001,2.6497 1.2103,1.3118 3.3555,-1.2874 4.8621,0.9787 0.4993,0.7509 1.0995,0.6382 1.3585,1.6472 0.1965,0.7659 0.0188,0.931 1.0248,0.931 0.0089,-0.036 0.1097,-0.1111 0.143,-0.1194 0.4476,-1.7907 1.016,-1.375 0.1669,-3.1749 -0.3003,-0.6365 0.136,-1.8661 0.6435,-2.3155 0.8087,-0.7159 1.6719,-3.5298 0.715,-4.4879 -1.4682,-1.4698 2.1999,-5.0777 3.9802,-3.4136 1.2086,1.1296 1.9449,2.821 3.3844,3.5807 1.2515,0.6606 2.3028,1.9788 3.1937,3.1272 0.3409,0.4776 0.9321,0.8022 1.3585,1.2294 0.4248,0.4254 1.1211,0.6206 1.7161,0.6206l0 0 0.2502 0.3939c0.2278,0.3911 0.6197,1.084 0.6197,1.5397 0,0.7513 -0.0277,1.5589 0.0357,2.3036 -0.8264,0.9474 -0.368,3.565 0.2622,4.5118 0.9093,1.3663 -0.7109,2.332 0,3.1033 0.5693,0.6178 0.8204,1.3277 1.5015,1.9574 2.0177,1.8658 0.0694,1.8164 -1.0248,2.5543 -0.7524,0.5073 -0.908,-0.1804 -1.1917,-0.6923 -1.4837,-2.6777 -3.0152,0.8119 -4.3616,1.8859 -0.3477,0.2774 -1.0206,0.3971 -1.2632,0.6684 -0.7429,0.8304 -0.9328,2.2094 -1.5253,3.151 -0.412,0.6547 -1.3984,0.081 -2.002,0.191 -0.8915,0.1626 -1.1542,1.2037 -1.3824,1.9814 -0.6831,1.8254 -1.3233,1.6671 -0.572,3.7717l1.287 3.6046c0.9792,2.7429 -0.5393,6.0226 0.2622,8.8086 0.5482,1.9058 1.0768,3.4711 0.9057,5.5024l-0.6674 3.9746 0 0c-1.1961,-0.6341 -2.4748,-1.9667 -3.1699,-3.1271 -1.4595,-2.4368 -3.691,-1.8027 -5.577,-3.2466 -0.8518,-0.652 -1.3383,-1.4565 -2.0736,-2.1484 -3.4583,-3.2538 -3.3605,1.9266 -3.3605,3.9388 0,1.74 -1.14,2.7047 -1.1917,4.0104 -0.0657,1.6567 0.8956,3.7099 0.167,5.2398 -0.6234,0.3304 -0.8449,0.7281 -1.6088,0.7281 -0.3885,0 -0.7368,-0.2029 -1.1202,-0.2029 -1.1043,0 -1.1779,1.003 -1.5253,1.8143 -0.228,0.5327 -0.4896,0.8693 -0.8104,1.3129 -0.3933,0.5441 -1.1496,0.8347 -1.6445,1.2771l0 0c-0.1454,-2.2097 -1.2864,-4.2689 -1.7996,-6.4214 -0.2218,-0.93 0.235,-1.8251 0.0715,-2.793 -0.4042,-2.3913 -1.6026,-4.5029 -2.6217,-6.6363 -0.8732,-1.8277 1.6256,-1.6519 2.4072,-0.6684 0.2962,0.3728 0.9952,1.2985 1.43,0.4774 0.4099,-0.7743 0.1166,-1.7931 0.1669,-2.6736 0.0956,-1.6735 -0.0718,-1.1151 -0.7389,-2.2439 -0.489,-0.8273 -0.5958,-2.0218 -0.5958,-3.0317 -0.0342,-1.2361 -0.3099,-2.498 -0.3099,-3.8434 0,-0.7918 -0.0718,-1.7075 -0.715,-2.1723 -1.5169,-1.096 -0.2245,-4.1131 -0.5958,-5.8485l-0.9295 -4.3447c-0.3761,-1.7579 -0.635,-3.6772 -1.1917,-5.2995 -0.451,-1.6575 -0.0246,-3.1833 -0.3098,-4.7504 -0.2544,-1.3982 -1.2235,-2.8942 -1.0011,-4.3446 0.127,-0.8278 0.6302,-1.7109 0.4291,-2.5543 -0.3066,-1.2859 -0.9854,-2.5887 -1.7637,-3.6285 -1.7575,-2.3477 1.0963,-2.0695 1.0963,-3.8194 0,-0.8162 -0.9311,-1.6951 -0.8818,-2.4588 0,-0.6426 -1.0025,-1.2863 -0.6435,-2.0052 0.3906,-0.7825 0.4411,-0.829 0.2526,-1.462l0 0z"/>
  <path class="fil0 str0" d="M94.537 269.696l0.6674 -3.9746c0.1711,-2.0313 -0.3575,-3.5966 -0.9057,-5.5024 -0.8015,-2.786 0.717,-6.0657 -0.2622,-8.8086l-1.287 -3.6046c-0.7513,-2.1046 -0.1111,-1.9463 0.572,-3.7717 0.2282,-0.7777 0.4909,-1.8188 1.3824,-1.9814 0.6036,-0.11 1.59,0.4637 2.002,-0.191 0.5925,-0.9416 0.7824,-2.3206 1.5253,-3.151 0.2426,-0.2713 0.9155,-0.391 1.2632,-0.6684 1.3464,-1.074 2.8779,-4.5636 4.3616,-1.8859 0.2837,0.5119 0.4393,1.1996 1.1917,0.6923 1.0942,-0.7379 3.0425,-0.6885 1.0248,-2.5543 -0.6811,-0.6297 -0.9322,-1.3396 -1.5015,-1.9574 -0.7109,-0.7713 0.9093,-1.737 0,-3.1033 -0.6302,-0.9468 -1.0886,-3.5644 -0.2622,-4.5118 -0.0634,-0.7447 -0.0357,-1.5523 -0.0357,-2.3036 0,-0.4557 -0.3919,-1.1486 -0.6197,-1.5397l-0.2502 -0.3939 0 0 0.5243 -0.9906c0,-0.3504 0.4793,-0.8721 0.6197,-1.2414 0.25,-0.6579 -0.2579,-3.8466 -0.1907,-4.7982 0.0449,-0.6337 1.0755,-1.3953 0.7627,-1.8858 -0.6506,-1.0198 -0.1767,-2.3433 -0.4767,-3.5091 -0.1658,-0.6441 -0.6061,-1.1187 -0.6673,-1.8143 -0.6512,-1.4648 0.2391,-3.8576 -0.4767,-4.8221 -0.9139,-1.2312 -2.403,-2.4149 -1.7875,-4.2014 0.3139,-0.9114 1.4254,-1.3954 0.286,-2.602 -1.6182,-1.7135 1.0065,-1.6698 2.0735,-1.5277 2.2167,0.2951 3.0342,2.2716 4.8859,3.1988 1.1378,0.5696 1.9285,-0.7727 2.8839,0 0.9468,0.7656 1.6685,2.0761 3.0507,1.7187 0.653,-0.1689 2.9057,-0.9658 3.289,-1.3845l3.0418 -1.4977 0 0c0.2033,1.0423 0.5794,2.1291 0.3426,3.0254 -0.1589,0.6017 -0.7497,1.182 -0.7865,1.7904 -0.0549,0.9054 0.3187,1.8614 0.2622,2.7691 -0.8849,3.5398 0.6664,5.6312 2.8123,8.1402 1.447,1.6919 0.6702,3.4537 -0.2547,4.9058 -0.9355,0.829 -1.7779,1.717 -2.1281,3.1896 -0.2473,1.0393 0.7134,1.4928 1.2852,2.1896 1.5151,1.8464 1.6962,2.4946 1.7888,4.969 0.0367,0.9805 -0.5205,2.0608 0.6912,2.602 0.8711,0.389 1.8236,0.2551 2.574,0.8594 0.4987,0.4016 1.5708,5.3056 1.6684,6.1827 0.1746,1.5675 0.3497,3.1352 0.5243,4.7027 0.1881,1.6881 1.3375,4.3103 1.0357,5.9122 -0.2424,1.2869 0.0464,3.2704 -1.0948,3.8556 -0.8419,0.4317 -3.587,-0.4701 -4.284,0.238 -0.7688,0.781 1.17,3.8932 1.2376,4.7124 0.0177,0.2151 0.3535,1.1588 0.3332,1.3328 -0.1587,1.3554 -2.4228,1.073 -3.2368,0.6664 -1.1012,-0.5501 -1.5744,-2.1332 -2.5228,-2.4752 -6.1661,-2.224 -6.7111,7.83 -4.3316,8.7108 0.1948,0.0719 0.3117,1.3219 0.3578,2.7651 -0.2824,0.1889 -1.9224,0.3461 -2.8193,-0.1755 -2.0457,-1.1897 -1.6665,-1.6497 -2.6217,0.8355 -0.3911,1.0178 -1.3078,1.7704 -1.7637,2.8408 -0.7253,1.7026 0.1021,2.8654 0.5005,4.4878 0.2993,1.2186 1.2133,4.9405 -1.0487,4.4879 -1.2979,-0.2597 -1.3611,-1.6191 -1.8114,-2.6259 -1.9316,-4.319 -3.7815,-1.2191 -4.3139,1.7188 -0.4959,2.7364 -0.8266,4.5542 -2.717,4.082l-0.4528 -4.6311c-0.2657,-2.6638 -2.2832,-3.6108 -2.7409,-6.0156 -0.0575,-0.3021 0.0708,-1.2652 -0.3575,-1.2652 -0.9089,0 -1.9665,0.2336 -2.8124,-0.2149l0 0z"/>
  <path class="fil0 str0" d="M79.784 141.649c1.9002,0.3366 4.8409,-0.8222 7.031,-0.8831 3.921,-0.1092 9.3172,1.9611 11.4401,-2.7452 0.5754,-1.2755 1.1619,-2.7682 1.9305,-3.9627 0.2928,-0.4552 0.7389,-1.2712 0.7389,-1.8381 0,-0.539 -0.7413,-1.4259 -0.5959,-1.7665 0.1742,-0.9891 0.9534,-1.7702 0.9534,-2.8645 0,-1.3875 -1.1679,-2.6013 -1.1679,-3.9866 0,-1.4127 1.5377,-1.8055 2.1927,-0.6445 0.9424,1.6702 4.0146,3.0369 5.6724,3.9627 0.746,0.4167 1.5727,1.0542 2.288,1.5993 0.7046,0.5371 1.665,0.9339 2.288,1.4323l1.2156 0.5012 0 0 2.0497 0.5013c0.9336,0.233 1.9417,0.0743 2.86,0.3103 0.9608,0.247 1.9136,0.4771 2.9077,0.5729 2.0885,0.2013 3.1397,-0.8151 4.6238,1.2891 1.0394,1.4738 5.9053,6.4428 2.8123,8.2118 0,1.8124 -2.4434,1.125 -2.8838,3.2704 -0.1853,0.9299 -0.0925,1.5168 -0.7627,2.244 -0.2974,0.3228 -0.4303,1.9751 -0.2622,2.3871 0.2091,0.5128 2.4719,4.1524 2.8601,4.2492 0,0.6146 -0.4841,1.0248 -0.7389,1.5994 -0.2291,0.5164 0.0754,1.4459 0.0477,2.0529 -0.0725,1.5861 0.841,3.057 0.3098,4.6072l-0.1431 3.2031 0 0c-0.224,0.0432 -0.4607,0.0421 -0.7149,-0.0281 -0.499,-0.1378 -1.685,-1.9676 -2.1212,-0.191 -0.6341,2.5821 -1.1089,4.3585 0.3656,6.6051l0 0 -2.475 -0.0404c-0.5975,-0.4791 -1.8122,-1.4178 -2.5382,-1.5994 -2.2197,-0.5552 -2.8668,-0.0477 -4.6952,-1.7665 -2.2841,-2.1473 -2.1312,-3.8949 -5.5771,-4.5595 -0.6481,-0.125 -5.4395,-2.6944 -5.5294,-3.0556 -0.2673,-0.0668 0.2192,-2.0346 0.286,-2.3632 0.158,-0.7761 0.263,-1.7864 0.0715,-2.5543 -1.5424,0 -3.6692,-1.6712 -5.005,-0.74 -4.0457,2.8209 -4.6257,-0.1466 -4.5999,-2.602 0.2299,-0.7936 -0.0477,-1.8222 -0.0477,-2.6498 0,-1.2226 -0.6722,-1.0198 -1.6922,-1.0981 -0.6258,-0.0481 -1.7341,-0.4707 -2.2404,-0.0955l-2.9315 2.1724c-2.2148,1.6413 -3.4548,-2.0458 -4.7667,0.0954l-1.2871 2.1007c-0.5462,0.8916 -0.7522,1.4591 -1.716,1.0743l-0.2145 -2.5543c-0.0862,-1.0281 -1.0309,-1.0797 -1.1678,-1.7665 -0.4789,-0.1193 0.806,-0.9231 0.9533,-3.5091 0.0711,-1.2437 -0.0423,-1.9921 -0.143,-3.1033l0.1192 -1.0743 0 0z"/>
  <path class="fil0 str0" d="M124.981 171.338l-2.475 -0.0404c-0.5975,-0.4791 -1.8122,-1.4178 -2.5382,-1.5994 -2.2197,-0.5552 -2.8668,-0.0477 -4.6952,-1.7665 -2.2841,-2.1473 -2.1312,-3.8949 -5.5771,-4.5595 -0.6481,-0.125 -5.4395,-2.6944 -5.5294,-3.0556 -0.2673,-0.0668 0.2192,-2.0346 0.286,-2.3632 0.158,-0.7761 0.263,-1.7864 0.0715,-2.5543 -1.5424,0 -3.6692,-1.6712 -5.005,-0.74 -4.0457,2.8209 -4.6257,-0.1466 -4.5999,-2.602 0.2299,-0.7936 -0.0477,-1.8222 -0.0477,-2.6498 0,-1.2226 -0.6722,-1.0198 -1.6922,-1.0981 -0.6258,-0.0481 -1.7341,-0.4707 -2.2404,-0.0955l-2.9315 2.1724c-2.2148,1.6413 -3.4548,-2.0458 -4.7667,0.0954l-1.2871 2.1007c-0.5462,0.8916 -0.7522,1.4591 -1.716,1.0743l-0.2145 -2.5543c-0.0862,-1.0281 -1.0309,-1.0797 -1.1678,-1.7665 -0.4789,-0.1193 0.806,-0.9231 0.9533,-3.5091 0.0711,-1.2437 -0.0423,-1.9921 -0.143,-3.1033l0.1192 -1.0743 0 0 -0.2144 -0.7638c-0.5836,-0.3331 -0.4181,-1.7182 -0.3337,-2.2678 0.1254,-0.8172 0.0954,-1.5528 0.0954,-2.3871 0,-0.838 -0.4171,-1.2713 -0.7031,-2.0053l0 0 -2.9673 0.1911c-1.3153,-0.4795 -2.4305,0.3098 -3.4559,-1.0026 -0.6341,-0.8114 -1.4591,-1.1129 -2.4548,-0.6684 -1.9897,0.8881 -3.1992,2.6943 -5.6963,1.6948 -1.3466,-0.5389 -3.761,-1.2957 -4.8382,-2.22 -1.3393,-1.1494 -1.5256,1.9878 -1.6445,2.9601 -0.2724,2.2281 2.1046,2.2369 0.9772,4.9891 -1.2106,2.955 -4.081,3.6818 -6.3636,5.4188l-5.0768 1.6232 0 0c-0.1531,0.5969 -0.7259,2.3627 -0.143,2.7691 1.1839,0.8253 0.3735,3.1272 0.6197,4.5595 0.1255,0.73 0.4041,1.1246 0.6435,1.7904 0.3305,0.9189 -0.7616,1.9418 0.0238,3.0317 1.2681,1.7599 2.0497,1.9025 2.0497,4.2969 0,2.0131 -0.7865,3.5079 -0.7865,5.4904 0.6975,2.4855 -1.6031,4.4385 -0.3337,6.8273 0.479,0.9013 1.4366,1.064 1.8591,1.862 0.5093,0.9618 0.9225,0.2309 1.5968,1.0742l4.8859 6.1112c1.2796,1.6004 -1.0974,1.6852 -0.7865,2.2916 0.5951,1.1603 0.8391,2.6579 1.43,3.8434 0.3243,1.4384 0.4265,4.9777 1.1917,6.0395 0.5562,0.772 1.3201,0.4538 2.0736,0.7877 0.9661,0.428 1.7062,2.4411 1.9543,3.4375 0.2012,0.8085 -0.0939,2.5398 0.429,3.1511 1.2817,1.4987 0.0186,2.4293 0.4767,3.9149 0.0325,0.1055 0.0612,0.1982 0.0858,0.2807l0 0 1.8092 -1.4265c0.4111,-0.1141 1.1575,-0.1489 1.2987,-0.6445 0.6442,-0.1615 0.7672,-2.0871 0.858,-2.6498 0.1307,-0.8102 0.2358,-1.1306 -0.0238,-1.9097 -0.2711,-0.8134 -0.1122,-1.4733 -0.7627,-2.1246 -0.6902,-0.6909 0.4535,-1.5553 0.5958,-2.1245 0.4882,0 1.1139,0.2018 1.6446,0.2625 0.1441,0.0165 1.1552,2.237 1.2155,2.602 0.1312,0.7946 -0.2383,1.7114 0.5958,2.1724 1.136,0.628 1.4709,2.1504 1.9544,3.2465 0.2761,0.6261 0.7834,1.1683 1.0487,1.7665 0.2725,0.6146 0.3371,1.3263 0.5005,1.9813 2.5313,4.4397 2.168,0.2238 5.3149,1.3607 0.4815,0.174 0.0715,1.8127 0.0715,2.2201 0,1.2327 -0.1336,1.0704 -0.8104,1.9813 -0.126,0.1697 0.2503,2.9759 0.1669,3.7479 -0.0704,0.6508 0.5696,2.182 1.001,2.6497 1.2103,1.3118 3.3555,-1.2874 4.8621,0.9787 0.4993,0.7509 1.0995,0.6382 1.3585,1.6472 0.1965,0.7659 0.0188,0.931 1.0248,0.931 0.0089,-0.036 0.1097,-0.1111 0.143,-0.1194 0.4476,-1.7907 1.016,-1.375 0.1669,-3.1749 -0.3003,-0.6365 0.136,-1.8661 0.6435,-2.3155 0.8087,-0.7159 1.6719,-3.5298 0.715,-4.4879 -1.4682,-1.4698 2.1999,-5.0777 3.9802,-3.4136 1.2086,1.1296 1.9449,2.821 3.3844,3.5807 1.2515,0.6606 2.3028,1.9788 3.1937,3.1272 0.3409,0.4776 0.9321,0.8022 1.3585,1.2294 0.4248,0.4254 1.1211,0.6206 1.7161,0.6206l0 0 0.5243 -0.9906c0,-0.3504 0.4793,-0.8721 0.6197,-1.2414 0.25,-0.6579 -0.2579,-3.8466 -0.1907,-4.7982 0.0449,-0.6337 1.0755,-1.3953 0.7627,-1.8858 -0.6506,-1.0198 -0.1767,-2.3433 -0.4767,-3.5091 -0.1658,-0.6441 -0.6061,-1.1187 -0.6673,-1.8143 -0.6512,-1.4648 0.2391,-3.8576 -0.4767,-4.8221 -0.9139,-1.2312 -2.403,-2.4149 -1.7875,-4.2014 0.3139,-0.9114 1.4254,-1.3954 0.286,-2.602 -1.6182,-1.7135 1.0065,-1.6698 2.0735,-1.5277 2.2167,0.2951 3.0342,2.2716 4.8859,3.1988 1.1378,0.5696 1.9285,-0.7727 2.8839,0 0.9468,0.7656 1.6685,2.0761 3.0507,1.7187 0.653,-0.1689 2.9057,-0.9658 3.289,-1.3845l3.0418 -1.4977 0 0c-0.0819,-0.4202 -0.1359,-0.8332 -0.1102,-1.2237l0.1418 -2.1553c2.0355,0.5883 1.6695,-3.105 1.6695,-5.4597 0,-1.5885 -0.0251,-2.5362 1.6445,-3.175 1.9195,-0.7345 0.0836,-1.4013 0.3814,-2.793 0.4123,-1.9265 3.0644,0.6567 1.9067,-1.3368 -0.7927,-1.3651 -1.5574,-2.3631 -2.0021,-3.9388 -0.3206,-1.1362 1.5381,-1.7659 0.3814,-3.342 -0.0905,-0.1233 -0.1751,-0.2451 -0.2541,-0.3654l0 0z"/>
  <path class="fil0 str0" d="M112.603 91.3275c0,-1.8406 -1.3662,-2.7715 -2.9315,-3.0556 -1.5311,-0.2778 -2.8313,0.0656 -3.7657,-1.4561 -1.2451,-2.0279 -2.8178,-2.0755 -4.8144,-2.9601 -1.0724,-0.4752 -0.8738,-0.9015 -0.9295,-1.9336 -0.0546,-1.0102 -0.6153,-1.8118 -1.1202,-2.6975 -2.2327,-1.6792 -3.2342,-0.8743 -5.6248,-0.7161 -1.9971,0.1321 -0.5294,-2.5043 -0.3575,-3.2943 0.6768,-3.1101 0.9838,-4.6401 0.3575,-7.7822 -1.6874,0 -1.2248,1.0959 -2.145,1.8381 -1.3526,1.0908 -2.8588,1.4791 -4.4092,2.1962 -2.2497,1.0404 -6.6079,2.9043 -9.0568,2.2917 -0.7268,-0.1818 -1.1944,-0.7105 -2.0259,-0.5252 -0.8595,0.1916 -1.1581,0.8371 -2.1927,0.74l0 0c0,-1.4641 0.061,-2.6858 0.9295,-3.891 1.2514,-1.7368 -0.7974,-2.4566 0.2622,-3.7717 1.0044,-1.2464 0.4966,-1.3568 -0.6435,-1.862 -1.5529,-0.688 -2.7702,-1.3953 -3.5036,-2.9362 -0.5885,-1.2362 -0.3951,-0.9042 -0.9295,0 -0.6014,1.0174 0.2755,1.371 -0.1191,2.2439 -0.0958,0.2121 -0.9737,1.0965 -1.0487,0.6445 -0.0834,-0.0119 -0.8451,-1.2389 -0.9295,-1.4084 -0.3177,0 -1.9067,2.6058 -1.9067,0.5491 0,-0.7959 0.4569,-6.1159 0.6435,-6.5409 0.5134,-1.1694 0.6843,-2.2514 0.429,-3.533 -0.4691,-2.3554 -0.411,-4.4762 -1.5254,-6.7079l-0.8768 -2.6206 0 0c0.3178,-0.0529 0.6734,-0.0788 1.0913,-0.1485 4.2532,-0.7091 6.2244,-2.63 7.2693,-6.8273 1.0989,-1.1004 2.5431,-2.916 3.0746,-4.3923 0.4196,-1.1653 0.3407,-2.6442 0.7865,-3.7001 0.2297,-0.5443 1.6365,-0.89 2.2165,-1.2652 2.6069,-1.6862 2.6694,-5.9658 2.6694,-8.8803 0.1909,-0.6123 0.321,-1.9353 0.6911,-2.3871 0.3964,-0.4837 4.5514,-1.9107 4.8621,-1.5994 0.8032,0.805 2.2119,1.0942 2.5502,2.1962 0.8729,2.844 3.5015,8.6851 6.4113,9.9783 2.7222,0.908 5.9338,-0.4164 8.6278,0.8832 2.5079,1.2097 4.4873,3.1075 6.6496,4.7505l0 0c0.1033,0.3209 0.1585,0.6298 0.2383,0.9549 0.1195,0.4869 0.5047,0.793 0.8818,1.098 0.2992,0.2419 0.7627,0.5185 0.7627,0.9549 -0.1014,0.2187 -0.1878,0.4787 -0.3575,0.6445 -0.4683,0.4579 -0.4138,1.2164 -0.3575,1.8382 0,0.9454 0.9115,2.332 -0.429,2.7452 -1.1803,0.3638 -1.012,1.0858 -0.572,2.0291 0.3179,0.6814 0.5831,1.2533 0.5482,2.0529 -0.0355,0.814 -0.473,1.6243 -0.8104,2.3395 -0.2208,0.4683 -0.1022,0.9773 -0.1906,1.48 0,1.8077 0.5892,2.2209 1.3346,3.6285 0.3301,0.6234 0.6722,1.0137 1.0392,1.2417l0 0 -2.8982 1.79c-0.635,0.5904 -2.3657,1.3964 -2.1689,2.3633 0.3296,1.6196 2.6631,2.8116 2.7648,4.4878 0.0513,0.8461 1.0779,1.5764 0.7626,2.602 -0.1489,0.4842 -0.4409,0.781 -0.6196,1.2175 -0.118,0.288 -0.1888,1.2565 -0.3099,1.4084 0.0477,0.8384 -1.074,0.6012 -1.3347,1.5278 -0.4173,1.4833 -0.6363,2.8169 -0.6673,4.4162l-0.0715 3.6763c-0.0334,1.723 1.9043,2.9704 2.1689,4.3446 0.2612,1.3571 0.8215,2.6079 1.1201,4.1059 -0.1753,0.6636 0.0757,0.9075 0.3099,1.48 0.3073,0.7508 0.3331,1.4592 0.4528,2.244 0.1091,0.715 -0.2622,1.2345 -0.2622,1.9097l0 0z"/>
  <path class="fil0 str0" d="M112.603 91.3275c0.2219,0.4308 0.528,0.7531 0.7984,1.1339 0.561,0.7898 1.5239,3.5404 0.5363,4.3924 -1.352,1.5247 0.002,2.844 0.154,4.4746 0.2106,2.2602 -0.4257,4.9517 -0.6188,7.2828 -0.2047,2.4698 0.952,4.7402 0.952,7.14 -0.2785,0.0928 -0.7273,1.7579 -0.3332,1.8564 0.0173,0.1211 0.0693,0.3982 0.1904,0.4284 0,0.1042 -0.0106,0.1164 0.0952,0.1428l0 0.0952c0.0983,0.0245 0.1904,0.1735 0.1904,0.2856 0.3472,0.1157 -0.1376,1.0459 -0.3332,1.0948 -0.0216,0.0867 -0.0736,0.1037 -0.0952,0.1904 -0.2241,0.056 -0.1701,0.3163 -0.4284,0.3808l0 0.0952c-0.0921,0.023 -0.1198,0.0507 -0.1428,0.1428 -0.0867,0.0216 -0.1037,0.0736 -0.1904,0.0952 -0.0404,0.1617 -0.7852,0.827 -0.9044,0.8568 -0.6108,2.4433 -2.5155,0.4623 -0.3808,3.6652 1.2265,1.8404 1.7612,1.36 1.7612,3.8556l-0.0828 1.5167 0 0 2.0497 0.5013c0.9336,0.233 1.9417,0.0743 2.86,0.3103 0.9608,0.247 1.9136,0.4771 2.9077,0.5729 2.0885,0.2013 3.1397,-0.8151 4.6238,1.2891 1.0394,1.4738 5.9053,6.4428 2.8123,8.2118 0,1.8124 -2.4434,1.125 -2.8838,3.2704 -0.1853,0.9299 -0.0925,1.5168 -0.7627,2.244 -0.2974,0.3228 -0.4303,1.9751 -0.2622,2.3871 0.2091,0.5128 2.4719,4.1524 2.8601,4.2492 0,0.6146 -0.4841,1.0248 -0.7389,1.5994 -0.2291,0.5164 0.0754,1.4459 0.0477,2.0529 -0.0725,1.5861 0.841,3.057 0.3098,4.6072l-0.1431 3.2031 0 0c1.4627,-0.2824 2.3863,-2.4593 4.1233,0.3061 1.5486,2.4657 3.0056,4.2039 6.0776,4.3446 3.3379,0.1529 5.2799,-2.4174 6.4351,-5.1563 0.2401,-0.5694 0.7902,-1.652 1.1202,-2.1484 0.2062,-0.3103 1.1202,-2.4994 1.1202,-3.6285 0,-0.8937 -0.3573,-1.3881 0.6197,-1.9336 0.4589,-0.2562 2.3015,-1.2242 2.0973,-1.7904 -0.1737,-0.4818 -1.2617,-0.276 -1.3823,-0.74 -0.6125,-2.3549 0.6681,-4.4135 1.0486,-6.7795 0.3612,-2.2459 -0.7083,-3.7424 -1.2393,-5.7053 -0.2587,-0.9566 0.0412,-2.9461 -0.1192,-3.6285 -0.1612,-0.6858 -0.6685,-1.1721 -0.3813,-1.9814 0.2087,-0.5881 0.6345,-1.084 0.5005,-1.7426 -0.3432,-1.6873 -2.2502,-2.3366 0.143,-3.2943 4.4305,-1.7732 2.3079,-4.5658 2.1212,-8.0208 -0.1016,-1.8817 0.4294,-3.7314 0.3414,-5.6357 -0.0208,-0.4519 0.4299,-2.3527 0.7616,-2.5704 0.9904,-0.6495 1.2852,-3.3178 1.2852,-4.1888 0,-1.2851 0.1428,-2.436 0.1428,-3.7128 0,-2.4943 0.2335,-5.1777 0.2856,-7.5208 0.0065,-0.3032 1.1064,-1.5594 1.3328,-1.9516 1.3897,-2.4048 -2.1371,-2.8691 -2.856,-4.4268 -0.1093,-1.0182 0.5251,-2.4993 0.0651,-3.3418 -0.7459,-1.3666 -0.6675,-2.7731 -0.2145,-4.2491 0.7066,-2.3017 -0.9535,-2.9814 -1.1917,-4.8937 0.0859,-0.9164 -0.572,-2.1467 -0.572,-3.1749 0,-1.8822 0.1736,-3.4393 0.4529,-5.2518 0.4541,-2.9475 -3.4663,-2.7451 -4.3616,-5.4427 -0.3715,-1.1196 -0.3958,-2.0199 -0.9295,-3.151 -0.4922,-1.0434 -1.2215,-2.0747 -0.5482,-3.1988 0.4202,-0.8418 0.3509,-1.4229 0.0896,-2.2316l0 0 -2.2346 0.7754c-3.5257,2.3127 -6.527,0.3532 -9.5573,-1.9336 -1.0188,-0.7689 -2.4671,-0.9112 -3.6704,-1.3368 -0.8909,-0.3152 -4.4315,2.3423 -5.9346,2.6736 -2.214,0.4881 -3.3113,-0.6464 -4.3377,-2.2439 -0.3594,-0.5595 -1.005,-2.6014 -1.8114,-2.3872 -1.1824,0.314 -2.1099,0.5975 -2.9172,0.0959l0 0 -2.8982 1.79c-0.635,0.5904 -2.3657,1.3964 -2.1689,2.3633 0.3296,1.6196 2.6631,2.8116 2.7648,4.4878 0.0513,0.8461 1.0779,1.5764 0.7626,2.602 -0.1489,0.4842 -0.4409,0.781 -0.6196,1.2175 -0.118,0.288 -0.1888,1.2565 -0.3099,1.4084 0.0477,0.8384 -1.074,0.6012 -1.3347,1.5278 -0.4173,1.4833 -0.6363,2.8169 -0.6673,4.4162l-0.0715 3.6763c-0.0334,1.723 1.9043,2.9704 2.1689,4.3446 0.2612,1.3571 0.8215,2.6079 1.1201,4.1059 -0.1753,0.6636 0.0757,0.9075 0.3099,1.48 0.3073,0.7508 0.3331,1.4592 0.4528,2.244 0.1091,0.715 -0.2622,1.2345 -0.2622,1.9097l0 0z"/>
  <path class="fil0 str0" d="M112.603 91.3275c0,-1.8406 -1.3662,-2.7715 -2.9315,-3.0556 -1.5311,-0.2778 -2.8313,0.0656 -3.7657,-1.4561 -1.2451,-2.0279 -2.8178,-2.0755 -4.8144,-2.9601 -1.0724,-0.4752 -0.8738,-0.9015 -0.9295,-1.9336 -0.0546,-1.0102 -0.6153,-1.8118 -1.1202,-2.6975 -2.2327,-1.6792 -3.2342,-0.8743 -5.6248,-0.7161 -1.9971,0.1321 -0.5294,-2.5043 -0.3575,-3.2943 0.6768,-3.1101 0.9838,-4.6401 0.3575,-7.7822 -1.6874,0 -1.2248,1.0959 -2.145,1.8381 -1.3526,1.0908 -2.8588,1.4791 -4.4092,2.1962 -2.2497,1.0404 -6.6079,2.9043 -9.0568,2.2917 -0.7268,-0.1818 -1.1944,-0.7105 -2.0259,-0.5252 -0.8595,0.1916 -1.1581,0.8371 -2.1927,0.74l0 0c0,0.5039 0.5035,2.6646 0.8819,2.9124 0.7403,0.4846 3.0983,0.8486 3.0983,1.9336 -0.5816,0.1938 -1.7487,1.7788 -1.9066,2.411 -0.5749,2.3019 1.6806,2.5247 1.5491,4.2492 -0.0359,0.4706 -0.7596,1.5009 -1.0963,1.8381 -0.6444,0.6456 -0.5351,1.2138 -0.9295,2.0052 -0.1709,0.8845 -1.001,0.6193 -1.001,1.8381 0,1.483 0.8341,2.5811 0.8341,4.273 0,1.3151 0.4036,2.3803 0.9296,3.4853 0.6033,1.2676 -0.0027,4.3063 -0.7389,5.3711 -0.4916,0.7112 -1.1056,1.4701 -0.3098,2.2678 0.3886,0.3894 1.9668,2.1861 2.0497,2.602 0.3275,0.8752 1.3654,1.2141 0.286,1.8142 -0.8598,0.4779 -0.5504,0.4939 -0.8819,1.2891 -0.4089,0.981 0.9969,2.3955 -0.0953,3.5807 -0.6249,0.678 -0.9485,1.7557 -0.7627,2.7214 0.1625,0.8441 1.2388,0.8428 1.3109,1.862 0.0374,0.5283 -0.2128,1.0873 -0.2384,1.6233 -0.0326,0.6812 0.7346,1.7279 0.5005,2.1961 -0.3796,0.7595 -0.5629,1.3071 -0.6435,2.1962 0,0.5762 0.3099,1.0227 0.3099,1.671 0,0.7739 0.0872,1.8689 0.4766,2.5304 0.4241,0.7207 0.9387,1.6485 1.0487,2.5304l0.3696 1.0504 0 0c0.286,0.734 0.7031,1.1673 0.7031,2.0053 0,0.8343 0.03,1.5699 -0.0954,2.3871 -0.0844,0.5496 -0.2499,1.9347 0.3337,2.2678l0.2144 0.7638 0 0c1.9002,0.3366 4.8409,-0.8222 7.031,-0.8831 3.921,-0.1092 9.3172,1.9611 11.4401,-2.7452 0.5754,-1.2755 1.1619,-2.7682 1.9305,-3.9627 0.2928,-0.4552 0.7389,-1.2712 0.7389,-1.8381 0,-0.539 -0.7413,-1.4259 -0.5959,-1.7665 0.1742,-0.9891 0.9534,-1.7702 0.9534,-2.8645 0,-1.3875 -1.1679,-2.6013 -1.1679,-3.9866 0,-1.4127 1.5377,-1.8055 2.1927,-0.6445 0.9424,1.6702 4.0146,3.0369 5.6724,3.9627 0.746,0.4167 1.5727,1.0542 2.288,1.5993 0.7046,0.5371 1.665,0.9339 2.288,1.4323l1.2156 0.5012 0 0 0.0828 -1.5167c0,-2.4956 -0.5347,-2.0152 -1.7612,-3.8556 -2.1347,-3.2029 -0.23,-1.2219 0.3808,-3.6652 0.1192,-0.0298 0.864,-0.6951 0.9044,-0.8568 0.0867,-0.0216 0.1037,-0.0736 0.1904,-0.0952 0.023,-0.0921 0.0507,-0.1198 0.1428,-0.1428l0 -0.0952c0.2583,-0.0645 0.2043,-0.3248 0.4284,-0.3808 0.0216,-0.0867 0.0736,-0.1037 0.0952,-0.1904 0.1956,-0.0489 0.6804,-0.9791 0.3332,-1.0948 0,-0.1121 -0.0921,-0.2611 -0.1904,-0.2856l0 -0.0952c-0.1058,-0.0264 -0.0952,-0.0386 -0.0952,-0.1428 -0.1211,-0.0302 -0.1731,-0.3073 -0.1904,-0.4284 -0.3941,-0.0985 0.0547,-1.7636 0.3332,-1.8564 0,-2.3998 -1.1567,-4.6702 -0.952,-7.14 0.1931,-2.3311 0.8294,-5.0226 0.6188,-7.2828 -0.152,-1.6306 -1.506,-2.9499 -0.154,-4.4746 0.9876,-0.852 0.0247,-3.6026 -0.5363,-4.3924 -0.2704,-0.3808 -0.5765,-0.7031 -0.7984,-1.1339l0 0z"/>
  <path class="fil0 str0" d="M64.3686 44.1386l0.8768 2.6206c1.1144,2.2317 1.0563,4.3525 1.5254,6.7079 0.2553,1.2816 0.0844,2.3636 -0.429,3.533 -0.1866,0.425 -0.6435,5.745 -0.6435,6.5409 0,2.0567 1.589,-0.5491 1.9067,-0.5491 0.0844,0.1695 0.8461,1.3965 0.9295,1.4084 0.075,0.452 0.9529,-0.4324 1.0487,-0.6445 0.3946,-0.8729 -0.4823,-1.2265 0.1191,-2.2439 0.5344,-0.9042 0.341,-1.2362 0.9295,0 0.7334,1.5409 1.9507,2.2482 3.5036,2.9362 1.1401,0.5052 1.6479,0.6156 0.6435,1.862 -1.0596,1.3151 0.9892,2.0349 -0.2622,3.7717 -0.8685,1.2052 -0.9295,2.4269 -0.9295,3.891l0 0c0,0.5039 0.5035,2.6646 0.8819,2.9124 0.7403,0.4846 3.0983,0.8486 3.0983,1.9336 -0.5816,0.1938 -1.7487,1.7788 -1.9066,2.411 -0.5749,2.3019 1.6806,2.5247 1.5491,4.2492 -0.0359,0.4706 -0.7596,1.5009 -1.0963,1.8381 -0.6444,0.6456 -0.5351,1.2138 -0.9295,2.0052 -0.1709,0.8845 -1.001,0.6193 -1.001,1.8381 0,1.483 0.8341,2.5811 0.8341,4.273 0,1.3151 0.4036,2.3803 0.9296,3.4853 0.6033,1.2676 -0.0027,4.3063 -0.7389,5.3711 -0.4916,0.7112 -1.1056,1.4701 -0.3098,2.2678 0.3886,0.3894 1.9668,2.1861 2.0497,2.602 0.3275,0.8752 1.3654,1.2141 0.286,1.8142 -0.8598,0.4779 -0.5504,0.4939 -0.8819,1.2891 -0.4089,0.981 0.9969,2.3955 -0.0953,3.5807 -0.6249,0.678 -0.9485,1.7557 -0.7627,2.7214 0.1625,0.8441 1.2388,0.8428 1.3109,1.862 0.0374,0.5283 -0.2128,1.0873 -0.2384,1.6233 -0.0326,0.6812 0.7346,1.7279 0.5005,2.1961 -0.3796,0.7595 -0.5629,1.3071 -0.6435,2.1962 0,0.5762 0.3099,1.0227 0.3099,1.671 0,0.7739 0.0872,1.8689 0.4766,2.5304 0.4241,0.7207 0.9387,1.6485 1.0487,2.5304l0.3696 1.0504 0 0 -2.9673 0.1911c-1.3153,-0.4795 -2.4305,0.3098 -3.4559,-1.0026 -0.6341,-0.8114 -1.4591,-1.1129 -2.4548,-0.6684 -1.9897,0.8881 -3.1992,2.6943 -5.6963,1.6948 -1.3466,-0.5389 -3.761,-1.2957 -4.8382,-2.22 -1.3393,-1.1494 -1.5256,1.9878 -1.6445,2.9601 -0.2724,2.2281 2.1046,2.2369 0.9772,4.9891 -1.2106,2.955 -4.081,3.6818 -6.3636,5.4188l-5.0768 1.6232 0 0c0.2458,-1.9708 -1.4664,-2.8147 0.9772,-3.8194 0.4946,-0.2034 0.5005,-0.9943 0.7627,-1.4084 0.1963,-0.3099 1.0498,-0.9136 1.3547,-1.2298 -0.2126,-0.9296 -0.307,-1.9631 -0.2282,-3.1537 0.0975,-1.4739 -1.0108,-2.0984 -1.5708,-2.9036 -0.4753,-0.6834 0.8994,-2.2201 0.8092,-3.1892 -0.189,-2.0303 -2.6799,-3.0232 -2.9988,-5.474 -0.1984,-1.5252 -1.7886,-2.2202 -1.9992,-3.3796 -0.1669,-0.9191 0.3068,-1.7807 0.0952,-2.6656 -0.5235,-2.1895 -1.0473,-4.3794 -1.5708,-6.5688 -0.365,-1.5268 -0.3103,-2.8077 -0.0549,-4.0183 -0.0212,-0.3511 -0.1768,-0.8852 -0.2951,-1.2077 -0.2929,-0.7989 -1.1401,-1.1797 -1.6087,-1.7904 -0.3575,-0.5711 -0.6078,-0.6194 -0.6078,-1.3607 0,-0.5061 0.2677,-1.0339 0.429,-1.4919 0.524,-1.4879 -1.287,-0.6344 -1.287,-1.8501 0,-0.8279 -0.025,-1.5013 0.4052,-2.22 0.4007,-0.6692 1.1062,-1.9213 0.9891,-2.7214 0.1371,-0.6532 0.209,-1.205 0.1427,-1.6875l0 0 1.1085 -0.6997c1.2027,-1.2881 -2.0843,-3.0918 -0.0479,-4.7146 1.5168,-1.2088 0.6197,-2.2728 0.6197,-3.8433 0,-2.0834 0.7388,-3.9834 0.7388,-6.1112 0,-1.0192 0.6359,-1.7512 0.715,-2.602 0.0941,-1.0131 -0.286,-1.6123 -0.286,-2.6497 0.582,-1.8081 1.8934,-2.0237 0.4528,-3.9866 -0.9325,-1.2704 -1.2546,-1.4622 -0.7865,-3.0555 0.2713,-0.9233 0.2045,-1.3536 0.715,-2.2201 0.8055,-1.367 0.4616,-2.2392 0.3814,-3.724 -0.0385,-0.7144 -0.0829,-1.4183 -0.286,-2.0768 -0.2198,-0.713 -0.7865,-0.8524 -0.7865,-1.7426 1.2753,-4.0895 1.1357,-9.0688 1.5253,-13.3681 0,-0.8674 0.3829,-2.1244 0.0954,-2.9124 -0.378,-1.0356 -1.0364,-0.9837 -0.9772,-2.22 0.0338,-0.7053 -0.7506,-0.8536 -1.2394,-1.1697 -0.9537,-0.6169 -1.6389,-1.1217 -1.8113,-2.2917 -0.2042,-1.3865 -0.7092,-2.4154 -0.4529,-3.9149l0 0c1.753,0.5659 3.9932,0.0821 5.8631,0.4535 2.6875,0.5339 5.4234,1.423 6.6019,4.0582 1.0043,2.2454 1.4335,5.2304 2.7647,7.3286 1.2525,1.6502 -0.0273,3.6523 2.6456,3.6523 0.7873,0 1.6815,0.3601 2.3833,0.6446 0.5255,0.2131 1.7468,-2.3457 2.1451,-2.8885 0.4513,-0.6149 0.8873,-0.7868 1.435,-0.878l0 0z"/>
  <path class="fil0 str0" d="M40.5299 31.7679c-0.2563,1.4995 0.2487,2.5284 0.4529,3.9149 0.1724,1.17 0.8576,1.6748 1.8113,2.2917 0.4888,0.3161 1.2732,0.4644 1.2394,1.1697 -0.0592,1.2363 0.5992,1.1844 0.9772,2.22 0.2875,0.788 -0.0954,2.045 -0.0954,2.9124 -0.3896,4.2993 -0.25,9.2786 -1.5253,13.3681 0,0.8902 0.5667,1.0296 0.7865,1.7426 0.2031,0.6585 0.2475,1.3624 0.286,2.0768 0.0802,1.4848 0.4241,2.357 -0.3814,3.724 -0.5105,0.8665 -0.4437,1.2968 -0.715,2.2201 -0.4681,1.5933 -0.146,1.7851 0.7865,3.0555 1.4406,1.9629 0.1292,2.1785 -0.4528,3.9866 0,1.0374 0.3801,1.6366 0.286,2.6497 -0.0791,0.8508 -0.715,1.5828 -0.715,2.602 0,2.1278 -0.7388,4.0278 -0.7388,6.1112 0,1.5705 0.8971,2.6345 -0.6197,3.8433 -2.0364,1.6228 1.2506,3.4265 0.0479,4.7146l-1.1085 0.6997 0 0.0052c0.0663,0.4825 -0.0056,1.0343 -0.1427,1.6875 0.1171,0.8001 -0.5884,2.0522 -0.9891,2.7214 -0.4302,0.7187 -0.4052,1.3921 -0.4052,2.22 0,1.2157 1.811,0.3622 1.287,1.8501 -0.1613,0.458 -0.429,0.9858 -0.429,1.4919 0,0.7413 0.2503,0.7896 0.6078,1.3607 0.4686,0.6107 1.3158,0.9915 1.6087,1.7904 0.1183,0.3225 0.2739,0.8566 0.2951,1.2077 -0.2554,1.2106 -0.3101,2.4915 0.0549,4.0183 0.5235,2.1894 1.0473,4.3793 1.5708,6.5688 0.2116,0.8849 -0.2621,1.7465 -0.0952,2.6656 0.2106,1.1594 1.8008,1.8544 1.9992,3.3796 0.3189,2.4508 2.8098,3.4437 2.9988,5.474 0.0902,0.9691 -1.2845,2.5058 -0.8092,3.1892 0.56,0.8052 1.6683,1.4297 1.5708,2.9036 -0.0788,1.1906 0.0156,2.2241 0.2282,3.1537 -0.3049,0.3162 -1.1584,0.9199 -1.3547,1.2298 -0.2622,0.4141 -0.2681,1.205 -0.7627,1.4084 -2.4436,1.0047 -0.7314,1.8486 -0.9772,3.8194 -0.1531,0.5969 -0.7259,2.3627 -0.143,2.7691 1.1839,0.8253 0.3735,3.1272 0.6197,4.5595 0.1255,0.73 0.4041,1.1246 0.6435,1.7904 0.3305,0.9189 -0.7616,1.9418 0.0238,3.0317 1.2681,1.7599 2.0497,1.9025 2.0497,4.2969 0,2.0131 -0.7865,3.5079 -0.7865,5.4904 0.6975,2.4855 -1.6031,4.4385 -0.3337,6.8273 0.479,0.9013 1.4366,1.064 1.8591,1.862 0.5093,0.9618 0.9225,0.2309 1.5968,1.0742l4.8859 6.1112c1.2796,1.6004 -1.0974,1.6852 -0.7865,2.2916 0.5951,1.1603 0.8391,2.6579 1.43,3.8434 0.3243,1.4384 0.4265,4.9777 1.1917,6.0395 0.5562,0.772 1.3201,0.4538 2.0736,0.7877 0.9661,0.428 1.7062,2.4411 1.9543,3.4375 0.2012,0.8085 -0.0939,2.5398 0.429,3.1511 1.2817,1.4987 0.0186,2.4293 0.4767,3.9149 0.2818,0.9141 0.2748,0.8581 -0.1668,1.7427 -0.359,0.7189 0.6435,1.3626 0.6435,2.0052 -0.0493,0.7637 0.8818,1.6426 0.8818,2.4588 0,1.7499 -2.8538,1.4717 -1.0963,3.8194 0.7783,1.0398 1.4571,2.3426 1.7637,3.6285 0.2011,0.8434 -0.3021,1.7265 -0.4291,2.5543 -0.2224,1.4504 0.7467,2.9464 1.0011,4.3446 0.2852,1.5671 -0.1412,3.0929 0.3098,4.7504 0.5567,1.6223 0.8156,3.5416 1.1917,5.2995l0.9295 4.3447c0.3713,1.7354 -0.9211,4.7525 0.5958,5.8485 0.6432,0.4648 0.715,1.3805 0.715,2.1723 0,1.3454 0.2757,2.6073 0.3099,3.8434 0,1.0099 0.1068,2.2044 0.5958,3.0317 0.6671,1.1288 0.8345,0.5704 0.7389,2.2439 -0.0503,0.8805 0.243,1.8993 -0.1669,2.6736 -0.4348,0.8211 -1.1338,-0.1046 -1.43,-0.4774 -0.7816,-0.9835 -3.2804,-1.1593 -2.4072,0.6684 1.0191,2.1334 2.2175,4.245 2.6217,6.6363 0.1635,0.9679 -0.2933,1.863 -0.0715,2.793 0.5132,2.1525 1.6542,4.2117 1.7996,6.4214l0 -0.0052c0.4949,-0.4424 1.2512,-0.733 1.6445,-1.2771 0.3208,-0.4436 0.5824,-0.7802 0.8104,-1.3129 0.3474,-0.8113 0.421,-1.8143 1.5253,-1.8143 0.3834,0 0.7317,0.2029 1.1202,0.2029 0.7639,0 0.9854,-0.3977 1.6088,-0.7281 0.7286,-1.5299 -0.2327,-3.5831 -0.167,-5.2398 0.0517,-1.3057 1.1917,-2.2704 1.1917,-4.0104 0,-2.0122 -0.0978,-7.1926 3.3605,-3.9388 0.7353,0.6919 1.2218,1.4964 2.0736,2.1484 1.886,1.4439 4.1175,0.8098 5.577,3.2466 0.6951,1.1604 1.9738,2.493 3.1699,3.1271 0.8459,0.4485 1.9035,0.2149 2.8124,0.2149 0.4283,0 0.3,0.9631 0.3575,1.2652 0.4577,2.4048 2.4752,3.3518 2.7409,6.0156l0.4528 4.6311c1.8904,0.4722 2.2211,-1.3456 2.717,-4.082 0.5324,-2.9379 2.3823,-6.0378 4.3139,-1.7188 0.4503,1.0068 0.5135,2.3662 1.8114,2.6259 2.262,0.4526 1.348,-3.2693 1.0487,-4.4879 -0.3984,-1.6224 -1.2258,-2.7852 -0.5005,-4.4878 0.4559,-1.0704 1.3726,-1.823 1.7637,-2.8408 0.9552,-2.4852 0.576,-2.0252 2.6217,-0.8355 0.8969,0.5216 2.5369,0.3644 2.8193,0.1755 -0.0461,-1.4432 -0.163,-2.6932 -0.3578,-2.7651 -2.3795,-0.8808 -1.8345,-10.9348 4.3316,-8.7108 0.9484,0.342 1.4216,1.9251 2.5228,2.4752 0.814,0.4066 3.0781,0.689 3.2368,-0.6664 0.0203,-0.174 -0.3155,-1.1177 -0.3332,-1.3328 -0.0676,-0.8192 -2.0064,-3.9314 -1.2376,-4.7124 0.697,-0.7081 3.4421,0.1937 4.284,-0.238 1.1412,-0.5852 0.8524,-2.5687 1.0948,-3.8556 0.3018,-1.6019 -0.8476,-4.2241 -1.0357,-5.9122 -0.1746,-1.5675 -0.3497,-3.1352 -0.5243,-4.7027 -0.0976,-0.8771 -1.1697,-5.7811 -1.6684,-6.1827 -0.7504,-0.6043 -1.7029,-0.4704 -2.574,-0.8594 -1.2117,-0.5412 -0.6545,-1.6215 -0.6912,-2.602 -0.0926,-2.4744 -0.2737,-3.1226 -1.7888,-4.969 -0.5718,-0.6968 -1.5325,-1.1503 -1.2852,-2.1896 0.3502,-1.4726 1.1926,-2.3606 2.1281,-3.1896 0.9249,-1.4521 1.7017,-3.2139 0.2547,-4.9058 -2.1459,-2.509 -3.6972,-4.6004 -2.8123,-8.1402 0.0565,-0.9077 -0.3171,-1.8637 -0.2622,-2.7691 0.0368,-0.6084 0.6276,-1.1887 0.7865,-1.7904 0.3323,-1.2576 -0.5422,-2.8901 -0.4528,-4.2491l0.1418 -2.1553c2.0355,0.5883 1.6695,-3.105 1.6695,-5.4597 0,-1.5885 -0.0251,-2.5362 1.6445,-3.175 1.9195,-0.7345 0.0836,-1.4013 0.3814,-2.793 0.4123,-1.9265 3.0644,0.6567 1.9067,-1.3368 -0.7927,-1.3651 -1.5574,-2.3631 -2.0021,-3.9388 -0.3206,-1.1362 1.5381,-1.7659 0.3814,-3.342 -1.7791,-2.424 -1.2878,-4.2501 -0.6197,-6.9705 0.4362,-1.7766 1.6222,0.0532 2.1212,0.191 1.9138,0.5283 2.8352,-2.8549 4.8382,0.3342 1.5487,2.4657 3.0056,4.2039 6.0776,4.3446 3.3379,0.1529 5.2799,-2.4174 6.4351,-5.1563 0.2401,-0.5694 0.7902,-1.652 1.1202,-2.1484 0.2062,-0.3103 1.1202,-2.4994 1.1202,-3.6285 0,-0.8937 -0.3573,-1.3881 0.6197,-1.9336 0.4589,-0.2562 2.3015,-1.2242 2.0973,-1.7904 -0.1737,-0.4818 -1.2617,-0.276 -1.3823,-0.74 -0.6125,-2.3549 0.6681,-4.4135 1.0486,-6.7795 0.3612,-2.2459 -0.7083,-3.7424 -1.2393,-5.7053 -0.2587,-0.9566 0.0412,-2.9461 -0.1192,-3.6285 -0.1612,-0.6858 -0.6685,-1.1721 -0.3813,-1.9814 0.2087,-0.5881 0.6345,-1.084 0.5005,-1.7426 -0.3432,-1.6873 -2.2502,-2.3366 0.143,-3.2943 4.4305,-1.7732 2.3079,-4.5658 2.1212,-8.0208 -0.1016,-1.8817 0.4294,-3.7314 0.3414,-5.6357 -0.0208,-0.4519 0.4299,-2.3527 0.7616,-2.5704 0.9904,-0.6495 1.2852,-3.3178 1.2852,-4.1888 0,-1.2851 0.1428,-2.436 0.1428,-3.7128 0,-2.4943 0.2335,-5.1777 0.2856,-7.5208 0.0065,-0.3032 1.1064,-1.5594 1.3328,-1.9516 1.3897,-2.4048 -2.1371,-2.8691 -2.856,-4.4268 -0.1093,-1.0182 0.5251,-2.4993 0.0651,-3.3418 -0.7459,-1.3666 -0.6675,-2.7731 -0.2145,-4.2491 0.7066,-2.3017 -0.9535,-2.9814 -1.1917,-4.8937 0.0859,-0.9164 -0.572,-2.1467 -0.572,-3.1749 0,-1.8822 0.1736,-3.4393 0.4529,-5.2518 0.4541,-2.9475 -3.4663,-2.7451 -4.3616,-5.4427 -0.3715,-1.1196 -0.3958,-2.0199 -0.9295,-3.151 -0.4922,-1.0434 -1.2215,-2.0747 -0.5482,-3.1988 0.4202,-0.8418 0.3509,-1.4229 0.0896,-2.2316l0 0 -2.2346 0.7754c-3.5257,2.3127 -6.527,0.3532 -9.5573,-1.9336 -1.0188,-0.7689 -2.4671,-0.9112 -3.6704,-1.3368 -0.8909,-0.3152 -4.4315,2.3423 -5.9346,2.6736 -2.214,0.4881 -3.3113,-0.6464 -4.3377,-2.2439 -0.3594,-0.5595 -1.005,-2.6014 -1.8114,-2.3872 -1.7199,0.4567 -2.9002,0.849 -3.9564,-1.1458 -0.7454,-1.4076 -1.3346,-1.8208 -1.3346,-3.6285 0.0884,-0.5027 -0.0302,-1.0117 0.1906,-1.48 0.3374,-0.7152 0.7749,-1.5255 0.8104,-2.3395 0.0349,-0.7996 -0.2303,-1.3715 -0.5482,-2.0529 -0.44,-0.9433 -0.6083,-1.6653 0.572,-2.0291 1.3405,-0.4132 0.429,-1.7998 0.429,-2.7452 -0.0563,-0.6218 -0.1108,-1.3803 0.3575,-1.8382 0.1697,-0.1658 0.2561,-0.4258 0.3575,-0.6445 0,-0.4364 -0.4635,-0.713 -0.7627,-0.9549 -0.3771,-0.305 -0.7623,-0.6111 -0.8818,-1.098 -0.0798,-0.3251 -0.135,-0.634 -0.2383,-0.9549l0 0c-2.1623,-1.643 -4.1417,-3.5408 -6.6496,-4.7505 -2.694,-1.2996 -5.9056,0.0248 -8.6278,-0.8832 -2.9098,-1.2932 -5.5384,-7.1343 -6.4113,-9.9783 -0.3383,-1.102 -1.747,-1.3912 -2.5502,-2.1962 -0.3107,-0.3113 -4.4657,1.1157 -4.8621,1.5994 -0.3701,0.4518 -0.5002,1.7748 -0.6911,2.3871 0,2.9145 -0.0625,7.1941 -2.6694,8.8803 -0.58,0.3752 -1.9868,0.7209 -2.2165,1.2652 -0.4458,1.0559 -0.3669,2.5348 -0.7865,3.7001 -0.5315,1.4763 -1.9757,3.2919 -3.0746,4.3923 -1.0449,4.1973 -3.0161,6.1182 -7.2693,6.8273 -1.1382,0.1898 -1.8132,0.0547 -2.5263,1.0265 -0.3984,0.5428 -1.6196,3.1016 -2.1451,2.8885 -0.7018,-0.2845 -1.596,-0.6446 -2.3833,-0.6446 -2.6729,0 -1.3931,-2.0021 -2.6456,-3.6523 -1.3312,-2.0982 -1.7604,-5.0832 -2.7647,-7.3286 -1.1785,-2.6352 -3.9144,-3.5243 -6.6019,-4.0582 -1.8699,-0.3714 -4.1101,0.1124 -5.8631,-0.4535l0 0zm-30.5299 -21.7679l169.564 0 0 277 -169.564 0 0 -277z"/>
  <path class="fil1" d="M84.5788 48.5149l10.8615 0c0.382,0 0.6945,0.3109 0.6945,0.691l0 1.9124c0,0.38 -0.3125,0.6909 -0.6945,0.6909l-10.8615 0c-0.382,0 -0.6945,-0.3109 -0.6945,-0.6909l0 -1.9124c0,-0.3801 0.3125,-0.691 0.6945,-0.691z"/>
  <path class="fil1" d="M53.8443 92.0453l9.1133 0c0.3206,0 0.5828,0.3109 0.5828,0.691l0 1.9124c0,0.38 -0.2622,0.6909 -0.5828,0.6909l-9.1133 0c-0.3206,0 -0.5828,-0.3109 -0.5828,-0.6909l0 -1.9124c0,-0.3801 0.2622,-0.691 0.5828,-0.691z"/>
  <path class="fil1" d="M90.7092 103.372l10.2554 0c0.3607,0 0.6558,0.3109 0.6558,0.691l0 1.9124c0,0.38 -0.2951,0.6909 -0.6558,0.6909l-10.2554 0c-0.3607,0 -0.6558,-0.3109 -0.6558,-0.6909l0 -1.9124c0,-0.3801 0.2951,-0.691 0.6558,-0.691z"/>
  <path class="fil1" d="M124.912 102.367l14.8834 0c0.5234,0 0.9517,0.3647 0.9517,0.8104l0 2.2431c0,0.4457 -0.4283,0.8104 -0.9517,0.8104l-14.8834 0c-0.5234,0 -0.9517,-0.3647 -0.9517,-0.8104l0 -2.2431c0,-0.4457 0.4283,-0.8104 0.9517,-0.8104z"/>
  <path class="fil1" d="M105.192 144.846l12.8344 0c0.4514,0 0.8207,0.3493 0.8207,0.7763l0 2.1486c0,0.427 -0.3693,0.7763 -0.8207,0.7763l-12.8344 0c-0.4514,0 -0.8207,-0.3493 -0.8207,-0.7763l0 -2.1486c0,-0.427 0.3693,-0.7763 0.8207,-0.7763z"/>
  <path class="fil1" d="M81.932 178.947l10.8615 0c0.382,0 0.6945,0.3572 0.6945,0.7937l0 2.197c0,0.4365 -0.3125,0.7937 -0.6945,0.7937l-10.8615 0c-0.382,0 -0.6945,-0.3572 -0.6945,-0.7937l0 -2.197c0,-0.4365 0.3125,-0.7937 0.6945,-0.7937z"/>
  <path class="fil1" d="M74.9421 233.846l14.3179 0c0.5035,0 0.9155,0.3758 0.9155,0.835l0 2.3111c0,0.4593 -0.412,0.835 -0.9155,0.835l-14.3179 0c-0.5035,0 -0.9155,-0.3757 -0.9155,-0.835l0 -2.3111c0,-0.4592 0.412,-0.835 0.9155,-0.835z"/>
  <path class="fil1" d="M112.708 236.546l6.2637 0c0.2203,0 0.4005,0.3109 0.4005,0.691l0 1.9124c0,0.38 -0.1802,0.6909 -0.4005,0.6909l-6.2637 0c-0.2203,0 -0.4005,-0.3109 -0.4005,-0.6909l0 -1.9124c0,-0.3801 0.1802,-0.691 0.4005,-0.691z"/>
  <path class="fil2" d="M90.435 106.3l1.4311 -2.5252 0.3981 0 0.4168 2.5252 -0.3269 0 -0.1223 -0.7267 -1.0218 0 -0.4045 0.7267 -0.3705 0zm0.9196 -0.9872l0.8355 0 -0.0982 -0.6338c-0.0376,-0.2516 -0.0612,-0.4609 -0.0706,-0.6285 -0.0576,0.1446 -0.1411,0.3163 -0.2516,0.515l-0.4151 0.7473z"/>
  <path id="1" class="fil2" d="M93.4183 104.128l0.0741 -0.3533 0.3099 0 -0.0735 0.3533 -0.3105 0zm-0.4545 2.1719l0.3822 -1.8291 0.3116 0 -0.3821 1.8291 -0.3117 0z"/>
  <path id="12" class="fil2" d="M93.7111 106.3l0.05 -0.2411 0.9836 -1.1077c0.07,-0.0782 0.1482,-0.1587 0.234,-0.2428 -0.1482,0.0147 -0.254,0.0224 -0.3187,0.0224l-0.6802 0 0.0553 -0.2599 1.414 0 -0.0412 0.1964 -0.9924 1.1141c-0.0559,0.0635 -0.14,0.15 -0.2511,0.2605 0.1734,-0.0106 0.2922,-0.0159 0.3563,-0.0159l0.7202 0 -0.057 0.274 -1.4728 0z"/>
  <path id="123" class="fil2" d="M96.7566 106.072c-0.1082,0.0929 -0.2116,0.1611 -0.3116,0.204 -0.0999,0.0435 -0.207,0.0647 -0.3204,0.0647 -0.1688,0 -0.3052,-0.0494 -0.4087,-0.1488 -0.1028,-0.0994 -0.1546,-0.2264 -0.1546,-0.3816 0,-0.1023 0.0229,-0.1928 0.0694,-0.271 0.0464,-0.0788 0.1082,-0.1423 0.1852,-0.1899 0.077,-0.0477 0.1711,-0.0818 0.2828,-0.1023 0.07,-0.0136 0.2028,-0.0247 0.3986,-0.033 0.1958,-0.0076 0.3363,-0.0288 0.421,-0.0617 0.0241,-0.0852 0.0365,-0.1558 0.0365,-0.2122 0,-0.0724 -0.0265,-0.1288 -0.0794,-0.1705 -0.0723,-0.0571 -0.1782,-0.0859 -0.3169,-0.0859 -0.1311,0 -0.2381,0.0288 -0.321,0.087 -0.0835,0.0582 -0.1441,0.1406 -0.1817,0.247l-0.3157 -0.0277c0.0646,-0.1811 0.1663,-0.3198 0.3057,-0.4168 0.1399,-0.0964 0.3157,-0.1447 0.528,-0.1447 0.2263,0 0.4057,0.0541 0.5374,0.1623 0.1011,0.08 0.1516,0.1846 0.1516,0.3134 0,0.0976 -0.0141,0.2105 -0.0429,0.3392l-0.1017 0.4551c-0.0323,0.1447 -0.0482,0.2622 -0.0482,0.3528 0,0.0576 0.0129,0.1399 0.0382,0.2481l-0.3157 0c-0.0171,-0.06 -0.0288,-0.1352 -0.0359,-0.2275zm0.1153 -0.6991c-0.0435,0.017 -0.0906,0.0306 -0.1406,0.0394 -0.0499,0.0094 -0.1334,0.0188 -0.2504,0.0294 -0.1811,0.0159 -0.3093,0.0364 -0.384,0.0611 -0.0746,0.0247 -0.1311,0.0641 -0.1687,0.1182 -0.0382,0.0535 -0.057,0.1135 -0.057,0.1787 0,0.0876 0.03,0.1594 0.0905,0.2158 0.06,0.0559 0.1458,0.0841 0.2575,0.0841 0.1035,0 0.2029,-0.027 0.2981,-0.0817 0.0953,-0.0547 0.1705,-0.1306 0.2252,-0.2282 0.0553,-0.0976 0.0982,-0.2369 0.1294,-0.4168z"/>
  <path id="1234" class="fil2" d="M97.8332 106.3l-0.1911 -1.8291 0.2998 0 0.0824 0.8214 0.0329 0.4615c0.0023,0.0347 0.0059,0.1041 0.01,0.2087 0.0347,-0.117 0.0641,-0.2069 0.0882,-0.2699 0.0241,-0.0623 0.0623,-0.1516 0.1152,-0.2675l0.4357 -0.9542 0.3398 0 0.06 0.9142c0.0094,0.1394 0.0147,0.3246 0.017,0.5568 0.0576,-0.154 0.1511,-0.3674 0.2811,-0.6408l0.3927 -0.8302 0.3116 0 -0.8936 1.8291 -0.324 0 -0.0688 -1.073c-0.0047,-0.0664 -0.0082,-0.1964 -0.0106,-0.3892 -0.047,0.1228 -0.1029,0.2551 -0.167,0.3974l-0.4838 1.0648 -0.3275 0z"/>
  <polygon id="12345" class="fil2" points="100.009,106.3 100.536,103.775 100.848,103.775 100.32,106.3 "/>
  <path class="fil2" d="M126.234 104.345l0.3345 0.0465c-0.1058,0.2916 -0.2598,0.5121 -0.4621,0.6614 -0.2016,0.1494 -0.4286,0.224 -0.6802,0.224 -0.3064,0 -0.5498,-0.0935 -0.7297,-0.2804 -0.1793,-0.1876 -0.2693,-0.4557 -0.2693,-0.8043 0,-0.4551 0.1364,-0.8314 0.4098,-1.1283 0.2434,-0.2658 0.5462,-0.3981 0.9078,-0.3981 0.2675,0 0.4845,0.0718 0.6503,0.2152 0.1658,0.1435 0.2622,0.3363 0.2887,0.5786l-0.3152 0.0294c-0.0335,-0.1823 -0.1023,-0.3187 -0.2057,-0.4092 -0.1041,-0.09 -0.2382,-0.1353 -0.4022,-0.1353 -0.3093,0 -0.5591,0.1376 -0.7496,0.4122 -0.1652,0.2363 -0.2481,0.5174 -0.2481,0.8419 0,0.2599 0.064,0.458 0.191,0.5944 0.1276,0.1364 0.2934,0.2052 0.498,0.2052 0.1747,0 0.3328,-0.057 0.4739,-0.1705 0.1411,-0.114 0.244,-0.2745 0.3081,-0.4827z"/>
  <path id="1" class="fil2" d="M126.771 105.234l0.5274 -2.5252 0.3116 0 -0.2017 0.9695c0.1159,-0.1123 0.224,-0.1929 0.324,-0.2417 0.1,-0.0488 0.2028,-0.0735 0.3081,-0.0735 0.1517,0 0.2693,0.04 0.3533,0.12 0.0841,0.0799 0.1259,0.1852 0.1259,0.3163 0,0.0641 -0.0183,0.1823 -0.0553,0.3545l-0.2258 1.0801 -0.3116 0 0.2328 -1.1077c0.033,-0.1605 0.05,-0.2616 0.05,-0.3028 0,-0.06 -0.0212,-0.1088 -0.0623,-0.1464 -0.0412,-0.0382 -0.1011,-0.057 -0.1793,-0.057 -0.1123,0 -0.2199,0.0294 -0.3216,0.0888 -0.1023,0.0588 -0.1829,0.1399 -0.2405,0.2428 -0.0582,0.1029 -0.1111,0.2681 -0.1593,0.4968l-0.1635 0.7855 -0.3122 0z"/>
  <path id="12" class="fil2" d="M129.966 105.006c-0.1082,0.0929 -0.2116,0.1611 -0.3116,0.204 -0.0999,0.0435 -0.207,0.0647 -0.3204,0.0647 -0.1688,0 -0.3052,-0.0494 -0.4087,-0.1488 -0.1028,-0.0994 -0.1546,-0.2264 -0.1546,-0.3816 0,-0.1023 0.0229,-0.1928 0.0694,-0.271 0.0464,-0.0788 0.1082,-0.1423 0.1852,-0.1899 0.077,-0.0477 0.1711,-0.0818 0.2828,-0.1023 0.07,-0.0136 0.2028,-0.0247 0.3986,-0.033 0.1958,-0.0076 0.3363,-0.0288 0.421,-0.0617 0.0241,-0.0852 0.0365,-0.1558 0.0365,-0.2122 0,-0.0724 -0.0265,-0.1288 -0.0794,-0.1705 -0.0723,-0.0571 -0.1782,-0.0859 -0.3169,-0.0859 -0.1311,0 -0.2381,0.0288 -0.321,0.087 -0.0835,0.0582 -0.1441,0.1406 -0.1817,0.247l-0.3157 -0.0277c0.0646,-0.1811 0.1663,-0.3198 0.3057,-0.4168 0.1399,-0.0964 0.3157,-0.1447 0.528,-0.1447 0.2263,0 0.4057,0.0541 0.5374,0.1623 0.1011,0.08 0.1516,0.1846 0.1516,0.3134 0,0.0976 -0.0141,0.2105 -0.0429,0.3392l-0.1017 0.4551c-0.0323,0.1447 -0.0482,0.2622 -0.0482,0.3528 0,0.0576 0.0129,0.1399 0.0382,0.2481l-0.3157 0c-0.0171,-0.06 -0.0288,-0.1352 -0.0359,-0.2275zm0.1153 -0.6991c-0.0435,0.017 -0.0906,0.0306 -0.1406,0.0394 -0.0499,0.0094 -0.1334,0.0188 -0.2504,0.0294 -0.1811,0.0159 -0.3093,0.0364 -0.384,0.0611 -0.0746,0.0247 -0.1311,0.0641 -0.1687,0.1182 -0.0382,0.0535 -0.057,0.1135 -0.057,0.1787 0,0.0876 0.03,0.1594 0.0905,0.2158 0.06,0.0559 0.1458,0.0841 0.2575,0.0841 0.1035,0 0.2029,-0.027 0.2981,-0.0817 0.0953,-0.0547 0.1705,-0.1306 0.2252,-0.2282 0.0553,-0.0976 0.0982,-0.2369 0.1294,-0.4168z"/>
  <path id="123" class="fil2" d="M130.693 105.234l0.3828 -1.8291 0.3116 0 -0.0635 0.301c0.1158,-0.1293 0.2193,-0.2193 0.3104,-0.2687 0.0918,-0.0494 0.1905,-0.0741 0.2975,-0.0741 0.1135,0 0.2088,0.0306 0.2852,0.0906 0.0759,0.0605 0.1264,0.1446 0.1505,0.2522 0.0929,-0.1146 0.1911,-0.2005 0.2934,-0.2575 0.1029,-0.0564 0.2111,-0.0853 0.3251,-0.0853 0.1523,0 0.267,0.0365 0.3434,0.1088 0.0764,0.0723 0.1147,0.174 0.1147,0.3046 0,0.0564 -0.013,0.1493 -0.0394,0.2792l-0.2464 1.1783 -0.3122 0 0.2517 -1.2094c0.0217,-0.0988 0.0329,-0.1693 0.0329,-0.2117 0,-0.0599 -0.0188,-0.107 -0.0571,-0.1411 -0.0376,-0.0347 -0.0911,-0.0517 -0.1599,-0.0517 -0.0935,0 -0.1881,0.0282 -0.2845,0.0841 -0.0965,0.0564 -0.1711,0.1305 -0.2246,0.2216 -0.0535,0.0911 -0.1,0.2317 -0.1406,0.421l-0.1858 0.8872 -0.3122 0 0.2587 -1.2353c0.0183,-0.0835 0.0277,-0.1434 0.0277,-0.1787 0,-0.06 -0.0188,-0.1082 -0.0559,-0.1447 -0.0376,-0.037 -0.0858,-0.0552 -0.1458,-0.0552 -0.0882,0 -0.1811,0.0282 -0.2781,0.0841 -0.097,0.0564 -0.1758,0.1346 -0.2369,0.2351 -0.0606,0.1006 -0.1106,0.244 -0.15,0.4298l-0.1805 0.8649 -0.3122 0z"/>
  <path id="1234" class="fil2" d="M133.48 105.935l0.5292 -2.5299 0.2875 0 -0.0535 0.2546c0.107,-0.1112 0.2028,-0.1888 0.2869,-0.2317 0.0847,-0.0429 0.1741,-0.0647 0.2681,-0.0647 0.1747,0 0.3193,0.0635 0.4339,0.1905 0.1147,0.127 0.1723,0.3087 0.1723,0.5451 0,0.1911 -0.0317,0.3645 -0.0947,0.5215 -0.0635,0.1564 -0.1405,0.2828 -0.2328,0.378 -0.0917,0.0953 -0.1846,0.1652 -0.2787,0.2099 -0.094,0.0447 -0.1911,0.0671 -0.2892,0.0671 -0.2199,0 -0.3899,-0.1112 -0.5104,-0.334l-0.2064 0.9936 -0.3122 0zm0.6168 -1.4481c0,0.1364 0.01,0.2311 0.0294,0.284 0.0288,0.0747 0.0758,0.1346 0.1411,0.1811 0.0659,0.0458 0.1417,0.0688 0.2275,0.0688 0.1794,0 0.324,-0.1012 0.434,-0.3022 0.1105,-0.2017 0.1658,-0.4075 0.1658,-0.618 0,-0.1546 -0.0371,-0.2745 -0.1112,-0.3592 -0.074,-0.0841 -0.1664,-0.1264 -0.2769,-0.1264 -0.0788,0 -0.1523,0.0212 -0.2205,0.0629 -0.0676,0.0417 -0.1305,0.1047 -0.1881,0.1876 -0.0582,0.0834 -0.1064,0.1852 -0.1441,0.3057 -0.0376,0.1205 -0.057,0.2258 -0.057,0.3157z"/>
  <path id="12345" class="fil2" d="M135.596 105.234l0.5274 -2.5252 0.3116 0 -0.2017 0.9695c0.1159,-0.1123 0.224,-0.1929 0.324,-0.2417 0.1,-0.0488 0.2028,-0.0735 0.3081,-0.0735 0.1517,0 0.2693,0.04 0.3533,0.12 0.0841,0.0799 0.1259,0.1852 0.1259,0.3163 0,0.0641 -0.0183,0.1823 -0.0553,0.3545l-0.2258 1.0801 -0.3116 0 0.2328 -1.1077c0.033,-0.1605 0.05,-0.2616 0.05,-0.3028 0,-0.06 -0.0212,-0.1088 -0.0623,-0.1464 -0.0412,-0.0382 -0.1011,-0.057 -0.1793,-0.057 -0.1123,0 -0.2199,0.0294 -0.3216,0.0888 -0.1023,0.0588 -0.1829,0.1399 -0.2405,0.2428 -0.0582,0.1029 -0.1111,0.2681 -0.1593,0.4968l-0.1635 0.7855 -0.3122 0z"/>
  <path id="123456" class="fil2" d="M138.791 105.006c-0.1082,0.0929 -0.2116,0.1611 -0.3116,0.204 -0.0999,0.0435 -0.207,0.0647 -0.3204,0.0647 -0.1688,0 -0.3052,-0.0494 -0.4087,-0.1488 -0.1028,-0.0994 -0.1546,-0.2264 -0.1546,-0.3816 0,-0.1023 0.0229,-0.1928 0.0694,-0.271 0.0464,-0.0788 0.1082,-0.1423 0.1852,-0.1899 0.077,-0.0477 0.1711,-0.0818 0.2828,-0.1023 0.07,-0.0136 0.2028,-0.0247 0.3986,-0.033 0.1958,-0.0076 0.3363,-0.0288 0.421,-0.0617 0.0241,-0.0852 0.0365,-0.1558 0.0365,-0.2122 0,-0.0724 -0.0265,-0.1288 -0.0794,-0.1705 -0.0723,-0.0571 -0.1782,-0.0859 -0.3169,-0.0859 -0.1311,0 -0.2381,0.0288 -0.321,0.087 -0.0835,0.0582 -0.1441,0.1406 -0.1817,0.247l-0.3157 -0.0277c0.0646,-0.1811 0.1663,-0.3198 0.3057,-0.4168 0.1399,-0.0964 0.3157,-0.1447 0.528,-0.1447 0.2263,0 0.4057,0.0541 0.5374,0.1623 0.1011,0.08 0.1516,0.1846 0.1516,0.3134 0,0.0976 -0.0141,0.2105 -0.0429,0.3392l-0.1017 0.4551c-0.0323,0.1447 -0.0482,0.2622 -0.0482,0.3528 0,0.0576 0.0129,0.1399 0.0382,0.2481l-0.3157 0c-0.0171,-0.06 -0.0288,-0.1352 -0.0359,-0.2275zm0.1153 -0.6991c-0.0435,0.017 -0.0906,0.0306 -0.1406,0.0394 -0.0499,0.0094 -0.1334,0.0188 -0.2504,0.0294 -0.1811,0.0159 -0.3093,0.0364 -0.384,0.0611 -0.0746,0.0247 -0.1311,0.0641 -0.1687,0.1182 -0.0382,0.0535 -0.057,0.1135 -0.057,0.1787 0,0.0876 0.03,0.1594 0.0905,0.2158 0.06,0.0559 0.1458,0.0841 0.2575,0.0841 0.1035,0 0.2029,-0.027 0.2981,-0.0817 0.0953,-0.0547 0.1705,-0.1306 0.2252,-0.2282 0.0553,-0.0976 0.0982,-0.2369 0.1294,-0.4168z"/>
  <path id="1234567" class="fil2" d="M139.962 103.062l0.0741 -0.3533 0.3099 0 -0.0735 0.3533 -0.3105 0zm-0.4545 2.1719l0.3822 -1.8291 0.3116 0 -0.3821 1.8291 -0.3117 0z"/>
  <polygon class="fil2" points="84.4231,51.3603 84.9499,48.8351 85.2874,48.8351 85.0346,50.0509 86.4056,48.8351 86.8807,48.8351 85.7078,49.8634 86.5673,51.3603 86.1899,51.3603 85.4614,50.0803 84.9328,50.5401 84.7606,51.3603 "/>
  <path id="1" class="fil2" d="M86.7914 50.6659c0,-0.3569 0.1052,-0.6526 0.3151,-0.8866 0.1735,-0.1934 0.401,-0.2899 0.682,-0.2899 0.2205,0 0.3987,0.0694 0.5333,0.207 0.1346,0.1376 0.2023,0.324 0.2023,0.558 0,0.2105 -0.0424,0.4057 -0.1276,0.5867 -0.0847,0.1805 -0.2058,0.3193 -0.3622,0.4157 -0.157,0.0964 -0.3222,0.1447 -0.4956,0.1447 -0.1423,0 -0.2717,-0.03 -0.3881,-0.0912 -0.1164,-0.0605 -0.2058,-0.147 -0.2669,-0.2581 -0.0618,-0.1117 -0.0923,-0.2405 -0.0923,-0.3863zm0.3116 -0.0305c0,0.1722 0.0417,0.3028 0.124,0.3915 0.0829,0.0888 0.1882,0.1335 0.3152,0.1335 0.067,0 0.1329,-0.0135 0.1981,-0.0406 0.0659,-0.027 0.1264,-0.0676 0.1829,-0.1229 0.0558,-0.0552 0.104,-0.1181 0.1434,-0.1887 0.04,-0.0705 0.0718,-0.1464 0.0959,-0.2281 0.0358,-0.1141 0.0535,-0.2228 0.0535,-0.3275 0,-0.1652 -0.0418,-0.2934 -0.1253,-0.3851 -0.0829,-0.0911 -0.1875,-0.1364 -0.3139,-0.1364 -0.0976,0 -0.187,0.0229 -0.267,0.0694 -0.0805,0.0464 -0.1534,0.1146 -0.2181,0.204 -0.0647,0.0899 -0.1123,0.194 -0.1429,0.3128 -0.0305,0.1187 -0.0458,0.2246 -0.0458,0.3181z"/>
  <polygon id="12" class="fil2" points="88.674,51.3603 89.2014,48.8351 89.513,48.8351 88.9856,51.3603 "/>
  <path id="123" class="fil2" d="M90.7153 51.1328c-0.1082,0.0929 -0.2116,0.1611 -0.3116,0.204 -0.0999,0.0435 -0.207,0.0647 -0.3204,0.0647 -0.1688,0 -0.3052,-0.0494 -0.4087,-0.1488 -0.1028,-0.0994 -0.1546,-0.2264 -0.1546,-0.3816 0,-0.1023 0.0229,-0.1928 0.0694,-0.271 0.0464,-0.0788 0.1082,-0.1423 0.1852,-0.1899 0.077,-0.0477 0.1711,-0.0818 0.2828,-0.1023 0.07,-0.0136 0.2028,-0.0247 0.3986,-0.033 0.1958,-0.0076 0.3363,-0.0288 0.421,-0.0617 0.0241,-0.0852 0.0365,-0.1558 0.0365,-0.2122 0,-0.0724 -0.0265,-0.1288 -0.0794,-0.1705 -0.0723,-0.0571 -0.1782,-0.0859 -0.3169,-0.0859 -0.1311,0 -0.2381,0.0288 -0.321,0.087 -0.0835,0.0582 -0.1441,0.1406 -0.1817,0.247l-0.3157 -0.0277c0.0646,-0.1811 0.1663,-0.3198 0.3057,-0.4168 0.1399,-0.0964 0.3157,-0.1447 0.528,-0.1447 0.2263,0 0.4057,0.0541 0.5374,0.1623 0.1011,0.08 0.1516,0.1846 0.1516,0.3134 0,0.0976 -0.0141,0.2105 -0.0429,0.3392l-0.1017 0.4551c-0.0323,0.1447 -0.0482,0.2622 -0.0482,0.3528 0,0.0576 0.0129,0.1399 0.0382,0.2481l-0.3157 0c-0.0171,-0.06 -0.0288,-0.1352 -0.0359,-0.2275zm0.1153 -0.6991c-0.0435,0.017 -0.0906,0.0306 -0.1406,0.0394 -0.0499,0.0094 -0.1334,0.0188 -0.2504,0.0294 -0.1811,0.0159 -0.3093,0.0364 -0.384,0.0611 -0.0746,0.0247 -0.1311,0.0641 -0.1687,0.1182 -0.0382,0.0535 -0.057,0.1135 -0.057,0.1787 0,0.0876 0.03,0.1594 0.0905,0.2158 0.06,0.0559 0.1458,0.0841 0.2575,0.0841 0.1035,0 0.2029,-0.027 0.2981,-0.0817 0.0953,-0.0547 0.1705,-0.1306 0.2252,-0.2282 0.0553,-0.0976 0.0982,-0.2369 0.1294,-0.4168z"/>
  <path id="1234" class="fil2" d="M91.4732 50.7353l0.3116 -0.0194c0,0.09 0.0141,0.1664 0.0418,0.2293 0.027,0.0629 0.0782,0.1147 0.1522,0.1552 0.0741,0.04 0.1605,0.06 0.2593,0.06 0.1376,0 0.2411,-0.0276 0.3099,-0.0823 0.0688,-0.0553 0.1035,-0.1205 0.1035,-0.1952 0,-0.0535 -0.0206,-0.1047 -0.0624,-0.1529 -0.0423,-0.0482 -0.1458,-0.1076 -0.3104,-0.1781 -0.1652,-0.0712 -0.2705,-0.1206 -0.3163,-0.1494 -0.077,-0.047 -0.1347,-0.1023 -0.1741,-0.1664 -0.0388,-0.0635 -0.0582,-0.137 -0.0582,-0.2193 0,-0.1446 0.0571,-0.2687 0.1723,-0.3721 0.1147,-0.1035 0.2752,-0.1553 0.4821,-0.1553 0.2293,0 0.4045,0.0535 0.5245,0.1594 0.1199,0.1064 0.1822,0.2463 0.1869,0.4198l-0.3051 0.0206c-0.0047,-0.1106 -0.0435,-0.1976 -0.117,-0.2617 -0.0735,-0.0647 -0.1776,-0.0964 -0.3116,-0.0964 -0.1082,0 -0.1917,0.0247 -0.2517,0.0735 -0.0599,0.0494 -0.0893,0.1029 -0.0893,0.1605 0,0.0576 0.0258,0.1082 0.0776,0.1517 0.0341,0.03 0.1229,0.0758 0.2669,0.1376 0.2387,0.1034 0.3892,0.1852 0.451,0.2446 0.0987,0.0952 0.1481,0.2116 0.1481,0.348 0,0.0906 -0.0276,0.1799 -0.0835,0.2669 -0.0558,0.0871 -0.1405,0.157 -0.2551,0.2094 -0.1141,0.0523 -0.2487,0.0782 -0.404,0.0782 -0.211,0 -0.3909,-0.0524 -0.5391,-0.1564 -0.1482,-0.1047 -0.2181,-0.2746 -0.2099,-0.5098z"/>
  <path id="12345" class="fil2" d="M93.6503 49.1884l0.0741 -0.3533 0.3099 0 -0.0735 0.3533 -0.3105 0zm-0.4545 2.1719l0.3822 -1.8291 0.3116 0 -0.3821 1.8291 -0.3117 0z"/>
  <path id="123456" class="fil2" d="M93.9913 51.3603l0.5274 -2.5252 0.3116 0 -0.1875 0.9025c0.0987,-0.0906 0.1881,-0.1547 0.2686,-0.1917 0.08,-0.0376 0.1641,-0.0565 0.2511,-0.0565 0.1711,0 0.314,0.0641 0.428,0.1917 0.1147,0.127 0.1717,0.3128 0.1717,0.5562 0,0.1617 -0.0229,0.3099 -0.0688,0.4445 -0.0458,0.1341 -0.1029,0.2469 -0.1705,0.3381 -0.0682,0.0917 -0.1382,0.1646 -0.2105,0.2187 -0.0723,0.0547 -0.1464,0.0958 -0.2222,0.1223 -0.0759,0.027 -0.1488,0.0406 -0.2187,0.0406 -0.1206,0 -0.2264,-0.0318 -0.3187,-0.0953 -0.0917,-0.0641 -0.1635,-0.1611 -0.2152,-0.2922l-0.0723 0.3463 -0.274 0zm0.4615 -0.7508l-0.0017 0.0582c0,0.1564 0.0376,0.2752 0.1123,0.3569 0.0746,0.0811 0.1675,0.1223 0.2787,0.1223 0.1093,0 0.2093,-0.0382 0.301,-0.1147 0.0911,-0.0764 0.1658,-0.1958 0.2246,-0.3574 0.0588,-0.1617 0.0876,-0.3111 0.0876,-0.4481 0,-0.1534 -0.037,-0.2734 -0.1111,-0.358 -0.0735,-0.0853 -0.1652,-0.1276 -0.2746,-0.1276 -0.1123,0 -0.2158,0.0435 -0.3098,0.1299 -0.0941,0.087 -0.1729,0.2205 -0.2358,0.4004 -0.0476,0.1347 -0.0712,0.247 -0.0712,0.3381z"/>
  <polygon class="fil2" points="74.4338,236.735 74.9612,234.21 75.2987,234.21 74.8319,236.449 76.1424,236.449 76.0824,236.735 "/>
  <path id="1" class="fil2" d="M77.6052 236.507c-0.1082,0.0929 -0.2116,0.1611 -0.3116,0.204 -0.0999,0.0435 -0.207,0.0647 -0.3204,0.0647 -0.1688,0 -0.3052,-0.0494 -0.4087,-0.1488 -0.1028,-0.0994 -0.1546,-0.2264 -0.1546,-0.3816 0,-0.1023 0.0229,-0.1928 0.0694,-0.271 0.0464,-0.0788 0.1082,-0.1423 0.1852,-0.1899 0.077,-0.0477 0.1711,-0.0818 0.2828,-0.1023 0.07,-0.0136 0.2028,-0.0247 0.3986,-0.033 0.1958,-0.0076 0.3363,-0.0288 0.421,-0.0617 0.0241,-0.0852 0.0365,-0.1558 0.0365,-0.2122 0,-0.0724 -0.0265,-0.1288 -0.0794,-0.1705 -0.0723,-0.0571 -0.1782,-0.0859 -0.3169,-0.0859 -0.1311,0 -0.2381,0.0288 -0.321,0.087 -0.0835,0.0582 -0.1441,0.1406 -0.1817,0.247l-0.3157 -0.0277c0.0646,-0.1811 0.1663,-0.3198 0.3057,-0.4168 0.1399,-0.0964 0.3157,-0.1447 0.528,-0.1447 0.2263,0 0.4057,0.0541 0.5374,0.1623 0.1011,0.08 0.1516,0.1846 0.1516,0.3134 0,0.0976 -0.0141,0.2105 -0.0429,0.3392l-0.1017 0.4551c-0.0323,0.1447 -0.0482,0.2622 -0.0482,0.3528 0,0.0576 0.0129,0.1399 0.0382,0.2481l-0.3157 0c-0.0171,-0.06 -0.0288,-0.1352 -0.0359,-0.2275zm0.1153 -0.6991c-0.0435,0.017 -0.0906,0.0306 -0.1406,0.0394 -0.0499,0.0094 -0.1334,0.0188 -0.2504,0.0294 -0.1811,0.0159 -0.3093,0.0364 -0.384,0.0611 -0.0746,0.0247 -0.1311,0.0641 -0.1687,0.1182 -0.0382,0.0535 -0.057,0.1135 -0.057,0.1787 0,0.0876 0.03,0.1594 0.0905,0.2158 0.06,0.0559 0.1458,0.0841 0.2575,0.0841 0.1035,0 0.2029,-0.027 0.2981,-0.0817 0.0953,-0.0547 0.1705,-0.1306 0.2252,-0.2282 0.0553,-0.0976 0.0982,-0.2369 0.1294,-0.4168z"/>
  <path id="12" class="fil2" d="M78.6818 236.735l-0.1911 -1.8291 0.2998 0 0.0824 0.8214 0.0329 0.4615c0.0023,0.0347 0.0059,0.1041 0.01,0.2087 0.0347,-0.117 0.0641,-0.2069 0.0882,-0.2699 0.0241,-0.0623 0.0623,-0.1516 0.1152,-0.2675l0.4357 -0.9542 0.3398 0 0.06 0.9142c0.0094,0.1394 0.0147,0.3246 0.017,0.5568 0.0576,-0.154 0.1511,-0.3674 0.2811,-0.6408l0.3927 -0.8302 0.3116 0 -0.8936 1.8291 -0.324 0 -0.0688 -1.073c-0.0047,-0.0664 -0.0082,-0.1964 -0.0106,-0.3892 -0.047,0.1228 -0.1029,0.2551 -0.167,0.3974l-0.4838 1.0648 -0.3275 0z"/>
  <path id="123" class="fil2" d="M80.8813 236.735l0.3828 -1.8291 0.2822 0 -0.0671 0.3187c0.1229,-0.1253 0.2376,-0.217 0.3446,-0.274 0.1064,-0.0576 0.2158,-0.0865 0.3269,-0.0865 0.1481,0 0.2646,0.0406 0.3492,0.1206 0.0841,0.0805 0.1264,0.1881 0.1264,0.3222 0,0.0682 -0.0147,0.1746 -0.0446,0.3204l-0.2329 1.1077 -0.3116 0 0.2428 -1.1594c0.0241,-0.1123 0.0365,-0.1958 0.0365,-0.2493 0,-0.0612 -0.0212,-0.1106 -0.0629,-0.1482 -0.0424,-0.0382 -0.1029,-0.057 -0.1817,-0.057 -0.1599,0 -0.3022,0.0576 -0.4263,0.1722 -0.1246,0.1147 -0.2163,0.3117 -0.2751,0.5909l-0.177 0.8508 -0.3122 0z"/>
  <path id="1234" class="fil2" d="M82.8263 236.9l0.3151 0.0294c-0.0024,0.0712 0.0065,0.1247 0.0259,0.1605 0.0194,0.0353 0.0505,0.0629 0.0929,0.0823 0.0564,0.0253 0.1293,0.0383 0.2187,0.0383 0.1887,0 0.3239,-0.0488 0.4068,-0.1464 0.0535,-0.0659 0.1035,-0.2082 0.15,-0.4275l0.0305 -0.1482c-0.1616,0.1641 -0.3339,0.2464 -0.5168,0.2464 -0.1846,0 -0.3392,-0.0682 -0.4639,-0.204 -0.1246,-0.1364 -0.1869,-0.3287 -0.1869,-0.578 0,-0.2058 0.0488,-0.3945 0.147,-0.5668 0.0981,-0.1722 0.2151,-0.3022 0.351,-0.3904 0.1352,-0.0876 0.2745,-0.1317 0.4186,-0.1317 0.2399,0 0.4245,0.1141 0.5544,0.3411l0.0618 -0.2993 0.2863 0 -0.3687 1.7656c-0.0405,0.194 -0.0929,0.3451 -0.1587,0.4539 -0.0653,0.1082 -0.1564,0.1923 -0.2728,0.2522 -0.1164,0.0594 -0.2511,0.0894 -0.4039,0.0894 -0.147,0 -0.2734,-0.0188 -0.3799,-0.057 -0.1064,-0.0377 -0.1857,-0.0929 -0.2375,-0.1658 -0.0523,-0.0729 -0.0788,-0.1564 -0.0788,-0.2511 0,-0.0282 0.003,-0.0594 0.0089,-0.0929zm0.3892 -0.9748c0,0.1252 0.0123,0.2193 0.0364,0.2828 0.0341,0.0882 0.0835,0.1558 0.147,0.2023 0.0635,0.0464 0.1347,0.0693 0.2129,0.0693 0.1023,0 0.204,-0.0358 0.3045,-0.1076 0.1011,-0.0717 0.1829,-0.1828 0.2458,-0.3333 0.0623,-0.15 0.094,-0.294 0.094,-0.4304 0,-0.1505 -0.0417,-0.2699 -0.1252,-0.3592 -0.0829,-0.0888 -0.1864,-0.1335 -0.3092,-0.1335 -0.0759,0 -0.1494,0.0206 -0.2205,0.0611 -0.0712,0.0406 -0.1376,0.1029 -0.1988,0.1858 -0.0617,0.0835 -0.1081,0.1835 -0.1393,0.2993 -0.0318,0.1158 -0.0476,0.2034 -0.0476,0.2634z"/>
  <path id="12345" class="fil2" d="M85.5338 236.482l-0.0512 0.2552c-0.0746,0.0194 -0.147,0.0294 -0.2175,0.0294 -0.1235,0 -0.2223,-0.0306 -0.2958,-0.0918 -0.0552,-0.0458 -0.0829,-0.1081 -0.0829,-0.1875 0,-0.04 0.0147,-0.1323 0.0447,-0.2775l0.2223 -1.0625 -0.2464 0 0.05 -0.241 0.2463 0 0.0947 -0.4498 0.3569 -0.2152 -0.1399 0.665 0.3069 0 -0.0518 0.241 -0.3051 0 -0.2117 1.0113c-0.0264,0.1282 -0.0394,0.2052 -0.0394,0.2305 0,0.037 0.0106,0.0647 0.0318,0.0847 0.0211,0.0194 0.0558,0.0288 0.104,0.0288 0.0688,0 0.1306,-0.0065 0.1841,-0.0206z"/>
  <polygon id="123456" class="fil2" points="85.7613,236.735 86.2887,234.21 86.6003,234.21 86.0729,236.735 "/>
  <path id="1234567" class="fil2" d="M87.8026 236.507c-0.1082,0.0929 -0.2116,0.1611 -0.3116,0.204 -0.0999,0.0435 -0.207,0.0647 -0.3204,0.0647 -0.1688,0 -0.3052,-0.0494 -0.4087,-0.1488 -0.1028,-0.0994 -0.1546,-0.2264 -0.1546,-0.3816 0,-0.1023 0.0229,-0.1928 0.0694,-0.271 0.0464,-0.0788 0.1082,-0.1423 0.1852,-0.1899 0.077,-0.0477 0.1711,-0.0818 0.2828,-0.1023 0.07,-0.0136 0.2028,-0.0247 0.3986,-0.033 0.1958,-0.0076 0.3363,-0.0288 0.421,-0.0617 0.0241,-0.0852 0.0365,-0.1558 0.0365,-0.2122 0,-0.0724 -0.0265,-0.1288 -0.0794,-0.1705 -0.0723,-0.0571 -0.1782,-0.0859 -0.3169,-0.0859 -0.1311,0 -0.2381,0.0288 -0.321,0.087 -0.0835,0.0582 -0.1441,0.1406 -0.1817,0.247l-0.3157 -0.0277c0.0646,-0.1811 0.1663,-0.3198 0.3057,-0.4168 0.1399,-0.0964 0.3157,-0.1447 0.528,-0.1447 0.2263,0 0.4057,0.0541 0.5374,0.1623 0.1011,0.08 0.1516,0.1846 0.1516,0.3134 0,0.0976 -0.0141,0.2105 -0.0429,0.3392l-0.1017 0.4551c-0.0323,0.1447 -0.0482,0.2622 -0.0482,0.3528 0,0.0576 0.0129,0.1399 0.0382,0.2481l-0.3157 0c-0.0171,-0.06 -0.0288,-0.1352 -0.0359,-0.2275zm0.1153 -0.6991c-0.0435,0.017 -0.0906,0.0306 -0.1406,0.0394 -0.0499,0.0094 -0.1334,0.0188 -0.2504,0.0294 -0.1811,0.0159 -0.3093,0.0364 -0.384,0.0611 -0.0746,0.0247 -0.1311,0.0641 -0.1687,0.1182 -0.0382,0.0535 -0.057,0.1135 -0.057,0.1787 0,0.0876 0.03,0.1594 0.0905,0.2158 0.06,0.0559 0.1458,0.0841 0.2575,0.0841 0.1035,0 0.2029,-0.027 0.2981,-0.0817 0.0953,-0.0547 0.1705,-0.1306 0.2252,-0.2282 0.0553,-0.0976 0.0982,-0.2369 0.1294,-0.4168z"/>
  <path id="12345678" class="fil2" d="M88.9738 234.563l0.0741 -0.3533 0.3099 0 -0.0735 0.3533 -0.3105 0zm-0.4545 2.1719l0.3822 -1.8291 0.3116 0 -0.3821 1.8291 -0.3117 0z"/>
  <polygon class="fil2" points="81.8326,181.807 82.36,179.282 82.6975,179.282 82.2307,181.521 83.5412,181.521 83.4812,181.807 "/>
  <path id="1" class="fil2" d="M85.0193 181.476c-0.2193,0.2481 -0.4439,0.3722 -0.6732,0.3722 -0.1411,0 -0.2552,-0.0406 -0.3422,-0.1212 -0.0864,-0.0811 -0.1299,-0.1799 -0.1299,-0.2975 0,-0.0764 0.0194,-0.2087 0.0588,-0.3957l0.2205 -1.0559 0.3116 0 -0.2446 1.1694c-0.0206,0.0976 -0.0312,0.1735 -0.0312,0.2276 0,0.0687 0.0212,0.1223 0.0629,0.1611 0.0418,0.0382 0.1035,0.0576 0.1852,0.0576 0.0871,0 0.1723,-0.0212 0.2558,-0.0641 0.0835,-0.0423 0.1552,-0.1 0.2152,-0.1723 0.0605,-0.0723 0.1093,-0.1576 0.1476,-0.2563 0.0252,-0.0635 0.0546,-0.1741 0.0876,-0.3328l0.1652 -0.7902 0.3122 0 -0.3828 1.8291 -0.2875 0 0.0688 -0.331z"/>
  <path id="12" class="fil2" d="M85.7325 181.807l0.3828 -1.8291 0.2822 0 -0.0671 0.3187c0.1229,-0.1253 0.2376,-0.217 0.3446,-0.274 0.1064,-0.0576 0.2158,-0.0865 0.3269,-0.0865 0.1481,0 0.2646,0.0406 0.3492,0.1206 0.0841,0.0805 0.1264,0.1881 0.1264,0.3222 0,0.0682 -0.0147,0.1746 -0.0446,0.3204l-0.2329 1.1077 -0.3116 0 0.2428 -1.1594c0.0241,-0.1123 0.0365,-0.1958 0.0365,-0.2493 0,-0.0612 -0.0212,-0.1106 -0.0629,-0.1482 -0.0424,-0.0382 -0.1029,-0.057 -0.1817,-0.057 -0.1599,0 -0.3022,0.0576 -0.4263,0.1722 -0.1246,0.1147 -0.2163,0.3117 -0.2751,0.5909l-0.177 0.8508 -0.3122 0z"/>
  <path id="123" class="fil2" d="M87.6775 181.972l0.3151 0.0294c-0.0024,0.0712 0.0065,0.1247 0.0259,0.1605 0.0194,0.0353 0.0505,0.0629 0.0929,0.0823 0.0564,0.0253 0.1293,0.0383 0.2187,0.0383 0.1887,0 0.3239,-0.0488 0.4068,-0.1464 0.0535,-0.0659 0.1035,-0.2082 0.15,-0.4275l0.0305 -0.1482c-0.1616,0.1641 -0.3339,0.2464 -0.5168,0.2464 -0.1846,0 -0.3392,-0.0682 -0.4639,-0.204 -0.1246,-0.1364 -0.1869,-0.3287 -0.1869,-0.578 0,-0.2058 0.0488,-0.3945 0.147,-0.5668 0.0981,-0.1722 0.2151,-0.3022 0.351,-0.3904 0.1352,-0.0876 0.2745,-0.1317 0.4186,-0.1317 0.2399,0 0.4245,0.1141 0.5544,0.3411l0.0618 -0.2993 0.2863 0 -0.3687 1.7656c-0.0405,0.194 -0.0929,0.3451 -0.1587,0.4539 -0.0653,0.1082 -0.1564,0.1923 -0.2728,0.2522 -0.1164,0.0594 -0.2511,0.0894 -0.4039,0.0894 -0.147,0 -0.2734,-0.0188 -0.3799,-0.057 -0.1064,-0.0377 -0.1857,-0.0929 -0.2375,-0.1658 -0.0523,-0.0729 -0.0788,-0.1564 -0.0788,-0.2511 0,-0.0282 0.003,-0.0594 0.0089,-0.0929zm0.3892 -0.9748c0,0.1252 0.0123,0.2193 0.0364,0.2828 0.0341,0.0882 0.0835,0.1558 0.147,0.2023 0.0635,0.0464 0.1347,0.0693 0.2129,0.0693 0.1023,0 0.204,-0.0358 0.3045,-0.1076 0.1011,-0.0717 0.1829,-0.1828 0.2458,-0.3333 0.0623,-0.15 0.094,-0.294 0.094,-0.4304 0,-0.1505 -0.0417,-0.2699 -0.1252,-0.3592 -0.0829,-0.0888 -0.1864,-0.1335 -0.3092,-0.1335 -0.0759,0 -0.1494,0.0206 -0.2205,0.0611 -0.0712,0.0406 -0.1376,0.1029 -0.1988,0.1858 -0.0617,0.0835 -0.1081,0.1835 -0.1393,0.2993 -0.0318,0.1158 -0.0476,0.2034 -0.0476,0.2634z"/>
  <polygon id="1234" class="fil2" points="89.6324,181.807 90.1598,179.282 90.4714,179.282 89.944,181.807 "/>
  <path id="12345" class="fil2" d="M91.7837 181.185l0.3033 0.0312c-0.0435,0.1505 -0.144,0.2934 -0.3004,0.4292 -0.157,0.1352 -0.3439,0.2029 -0.5609,0.2029 -0.1352,0 -0.2599,-0.0312 -0.3728,-0.0935 -0.1128,-0.0629 -0.1993,-0.1541 -0.2587,-0.2734 -0.0588,-0.1194 -0.0881,-0.2552 -0.0881,-0.4081 0,-0.1999 0.0458,-0.3933 0.1381,-0.5814 0.0929,-0.1876 0.2123,-0.3269 0.3593,-0.4187 0.1469,-0.0911 0.3063,-0.137 0.4774,-0.137 0.2181,0 0.3921,0.0682 0.5227,0.2035 0.1305,0.1358 0.1952,0.3204 0.1952,0.5544 0,0.09 -0.0077,0.1817 -0.0241,0.2758l-1.347 0c-0.0042,0.0358 -0.0065,0.0676 -0.0065,0.0964 0,0.1711 0.0394,0.3016 0.1176,0.3921 0.0788,0.09 0.1752,0.1353 0.2887,0.1353 0.107,0 0.2116,-0.0353 0.3151,-0.1053 0.1035,-0.0699 0.184,-0.1711 0.2411,-0.3034zm-0.9061 -0.4527l1.0266 0c0.0012,-0.0323 0.0018,-0.0552 0.0018,-0.0688 0,-0.1564 -0.0388,-0.2763 -0.117,-0.3592 -0.0782,-0.0835 -0.1788,-0.1252 -0.3017,-0.1252 -0.1328,0 -0.2545,0.0464 -0.3639,0.1381 -0.1099,0.0918 -0.1917,0.2299 -0.2458,0.4151z"/>
  <path id="123456" class="fil2" d="M92.8449 179.635l0.0741 -0.3533 0.3099 0 -0.0735 0.3533 -0.3105 0zm-0.4545 2.1719l0.3822 -1.8291 0.3116 0 -0.3821 1.8291 -0.3117 0z"/>
  <path class="fil2" d="M53.7235 94.8938l0.5268 -2.5252 0.4151 0 0.2552 1.6362c0.0329,0.2152 0.0553,0.421 0.0652,0.6185 0.07,-0.1699 0.187,-0.4004 0.3516,-0.6908l0.8855 -1.5639 0.4216 0 -0.5268 2.5252 -0.3322 0 0.2634 -1.2282c0.0605,-0.2834 0.1481,-0.6015 0.2616,-0.9543 -0.0723,0.1641 -0.1617,0.341 -0.2687,0.5304l-0.9407 1.6521 -0.3252 0 -0.2534 -1.6192c-0.0229,-0.1482 -0.0393,-0.321 -0.0499,-0.5186 -0.0288,0.2217 -0.0571,0.3975 -0.0841,0.5274l-0.3363 1.6104 -0.3287 0z"/>
  <path id="1" class="fil2" d="M57.8574 94.6663c-0.1082,0.0929 -0.2116,0.1611 -0.3116,0.204 -0.0999,0.0435 -0.207,0.0647 -0.3204,0.0647 -0.1688,0 -0.3052,-0.0494 -0.4087,-0.1488 -0.1028,-0.0994 -0.1546,-0.2264 -0.1546,-0.3816 0,-0.1023 0.0229,-0.1928 0.0694,-0.271 0.0464,-0.0788 0.1082,-0.1423 0.1852,-0.1899 0.077,-0.0477 0.1711,-0.0818 0.2828,-0.1023 0.07,-0.0136 0.2028,-0.0247 0.3986,-0.033 0.1958,-0.0076 0.3363,-0.0288 0.421,-0.0617 0.0241,-0.0852 0.0365,-0.1558 0.0365,-0.2122 0,-0.0724 -0.0265,-0.1288 -0.0794,-0.1705 -0.0723,-0.0571 -0.1782,-0.0859 -0.3169,-0.0859 -0.1311,0 -0.2381,0.0288 -0.321,0.087 -0.0835,0.0582 -0.1441,0.1406 -0.1817,0.247l-0.3157 -0.0277c0.0646,-0.1811 0.1663,-0.3198 0.3057,-0.4168 0.1399,-0.0964 0.3157,-0.1447 0.528,-0.1447 0.2263,0 0.4057,0.0541 0.5374,0.1623 0.1011,0.08 0.1516,0.1846 0.1516,0.3134 0,0.0976 -0.0141,0.2105 -0.0429,0.3392l-0.1017 0.4551c-0.0323,0.1447 -0.0482,0.2622 -0.0482,0.3528 0,0.0576 0.0129,0.1399 0.0382,0.2481l-0.3157 0c-0.0171,-0.06 -0.0288,-0.1352 -0.0359,-0.2275zm0.1153 -0.6991c-0.0435,0.017 -0.0906,0.0306 -0.1406,0.0394 -0.0499,0.0094 -0.1334,0.0188 -0.2504,0.0294 -0.1811,0.0159 -0.3093,0.0364 -0.384,0.0611 -0.0746,0.0247 -0.1311,0.0641 -0.1687,0.1182 -0.0382,0.0535 -0.057,0.1135 -0.057,0.1787 0,0.0876 0.03,0.1594 0.0905,0.2158 0.06,0.0559 0.1458,0.0841 0.2575,0.0841 0.1035,0 0.2029,-0.027 0.2981,-0.0817 0.0953,-0.0547 0.1705,-0.1306 0.2252,-0.2282 0.0553,-0.0976 0.0982,-0.2369 0.1294,-0.4168z"/>
  <path id="12" class="fil2" d="M58.5841 94.8938l0.3828 -1.8291 0.3116 0 -0.0635 0.301c0.1158,-0.1293 0.2193,-0.2193 0.3104,-0.2687 0.0918,-0.0494 0.1905,-0.0741 0.2975,-0.0741 0.1135,0 0.2088,0.0306 0.2852,0.0906 0.0759,0.0605 0.1264,0.1446 0.1505,0.2522 0.0929,-0.1146 0.1911,-0.2005 0.2934,-0.2575 0.1029,-0.0564 0.2111,-0.0853 0.3251,-0.0853 0.1523,0 0.267,0.0365 0.3434,0.1088 0.0764,0.0723 0.1147,0.174 0.1147,0.3046 0,0.0564 -0.013,0.1493 -0.0394,0.2792l-0.2464 1.1783 -0.3122 0 0.2517 -1.2094c0.0217,-0.0988 0.0329,-0.1693 0.0329,-0.2117 0,-0.0599 -0.0188,-0.107 -0.0571,-0.1411 -0.0376,-0.0347 -0.0911,-0.0517 -0.1599,-0.0517 -0.0935,0 -0.1881,0.0282 -0.2845,0.0841 -0.0965,0.0564 -0.1711,0.1305 -0.2246,0.2216 -0.0535,0.0911 -0.1,0.2317 -0.1406,0.421l-0.1858 0.8872 -0.3122 0 0.2587 -1.2353c0.0183,-0.0835 0.0277,-0.1434 0.0277,-0.1787 0,-0.06 -0.0188,-0.1082 -0.0559,-0.1447 -0.0376,-0.037 -0.0858,-0.0552 -0.1458,-0.0552 -0.0882,0 -0.1811,0.0282 -0.2781,0.0841 -0.097,0.0564 -0.1758,0.1346 -0.2369,0.2351 -0.0606,0.1006 -0.1106,0.244 -0.15,0.4298l-0.1805 0.8649 -0.3122 0z"/>
  <path id="123" class="fil2" d="M61.9672 92.7219l0.0741 -0.3533 0.3099 0 -0.0735 0.3533 -0.3105 0zm-0.4545 2.1719l0.3822 -1.8291 0.3116 0 -0.3821 1.8291 -0.3117 0z"/>
  <path id="1234" class="fil2" d="M63.0367 94.6404l-0.0512 0.2552c-0.0746,0.0194 -0.147,0.0294 -0.2175,0.0294 -0.1235,0 -0.2223,-0.0306 -0.2958,-0.0918 -0.0552,-0.0458 -0.0829,-0.1081 -0.0829,-0.1875 0,-0.04 0.0147,-0.1323 0.0447,-0.2775l0.2223 -1.0625 -0.2464 0 0.05 -0.241 0.2463 0 0.0947 -0.4498 0.3569 -0.2152 -0.1399 0.665 0.3069 0 -0.0518 0.241 -0.3051 0 -0.2117 1.0113c-0.0264,0.1282 -0.0394,0.2052 -0.0394,0.2305 0,0.037 0.0106,0.0647 0.0318,0.0847 0.0211,0.0194 0.0558,0.0288 0.104,0.0288 0.0688,0 0.1306,-0.0065 0.1841,-0.0206z"/>
  <path class="fil2" d="M113.239 238.639l0.3304 -0.0305 -0.0029 0.0876c0,0.0976 0.0223,0.1869 0.067,0.2681 0.0447,0.0805 0.1188,0.1434 0.2223,0.1875 0.1029,0.0441 0.2257,0.0665 0.3686,0.0665 0.2017,0 0.3563,-0.0441 0.4621,-0.1329 0.1065,-0.0882 0.1594,-0.1893 0.1594,-0.3034 0,-0.0788 -0.0282,-0.1511 -0.0841,-0.2169 -0.0576,-0.0641 -0.2146,-0.1511 -0.4704,-0.2617 -0.1987,-0.0858 -0.3339,-0.1523 -0.4062,-0.1981 -0.1141,-0.0747 -0.1976,-0.1558 -0.2517,-0.2434 -0.0541,-0.0882 -0.0811,-0.1882 -0.0811,-0.3011 0,-0.1293 0.0359,-0.2469 0.107,-0.351 0.0711,-0.1046 0.1752,-0.1846 0.3122,-0.2399 0.1376,-0.0546 0.2922,-0.0823 0.4645,-0.0823 0.2058,0 0.3792,0.0341 0.5203,0.1035 0.1411,0.0688 0.2434,0.1605 0.3075,0.2752 0.0635,0.1152 0.0953,0.2246 0.0953,0.3292 0,0.0106 -0.0006,0.0277 -0.0018,0.0518l-0.3251 0.0258c0,-0.0711 -0.0065,-0.127 -0.0194,-0.1669 -0.023,-0.0706 -0.0582,-0.1294 -0.1065,-0.1776 -0.0482,-0.0482 -0.1146,-0.087 -0.1993,-0.1164 -0.0841,-0.0294 -0.1787,-0.0441 -0.2828,-0.0441 -0.184,0 -0.3269,0.0417 -0.4292,0.124 -0.0782,0.0635 -0.117,0.147 -0.117,0.2517 0,0.0623 0.0159,0.1176 0.0482,0.1664 0.0324,0.0488 0.09,0.0964 0.1741,0.1434 0.0593,0.0335 0.201,0.0994 0.425,0.1982 0.1817,0.0805 0.307,0.1434 0.3757,0.1899 0.0918,0.0605 0.1623,0.1346 0.2117,0.2211 0.0494,0.0864 0.0741,0.1852 0.0741,0.2951 0,0.137 -0.0412,0.2628 -0.1247,0.3786 -0.0834,0.1153 -0.1981,0.2046 -0.3451,0.2676 -0.147,0.0635 -0.3157,0.0946 -0.505,0.0946 -0.2858,0 -0.5192,-0.0623 -0.7003,-0.1869 -0.1805,-0.1247 -0.2716,-0.3487 -0.2728,-0.6727z"/>
  <path id="1" class="fil2" d="M116.694 239.229c-0.1082,0.0929 -0.2116,0.1611 -0.3116,0.204 -0.0999,0.0435 -0.207,0.0647 -0.3204,0.0647 -0.1688,0 -0.3052,-0.0494 -0.4087,-0.1488 -0.1028,-0.0994 -0.1546,-0.2264 -0.1546,-0.3816 0,-0.1023 0.0229,-0.1928 0.0694,-0.271 0.0464,-0.0788 0.1082,-0.1423 0.1852,-0.1899 0.077,-0.0477 0.1711,-0.0818 0.2828,-0.1023 0.07,-0.0136 0.2028,-0.0247 0.3986,-0.033 0.1958,-0.0076 0.3363,-0.0288 0.421,-0.0617 0.0241,-0.0852 0.0365,-0.1558 0.0365,-0.2122 0,-0.0724 -0.0265,-0.1288 -0.0794,-0.1705 -0.0723,-0.0571 -0.1782,-0.0859 -0.3169,-0.0859 -0.1311,0 -0.2381,0.0288 -0.321,0.087 -0.0835,0.0582 -0.1441,0.1406 -0.1817,0.247l-0.3157 -0.0277c0.0646,-0.1811 0.1663,-0.3198 0.3057,-0.4168 0.1399,-0.0964 0.3157,-0.1447 0.528,-0.1447 0.2263,0 0.4057,0.0541 0.5374,0.1623 0.1011,0.08 0.1516,0.1846 0.1516,0.3134 0,0.0976 -0.0141,0.2105 -0.0429,0.3392l-0.1017 0.4551c-0.0323,0.1447 -0.0482,0.2622 -0.0482,0.3528 0,0.0576 0.0129,0.1399 0.0382,0.2481l-0.3157 0c-0.0171,-0.06 -0.0288,-0.1352 -0.0359,-0.2275zm0.1153 -0.6991c-0.0435,0.017 -0.0906,0.0306 -0.1406,0.0394 -0.0499,0.0094 -0.1334,0.0188 -0.2504,0.0294 -0.1811,0.0159 -0.3093,0.0364 -0.384,0.0611 -0.0746,0.0247 -0.1311,0.0641 -0.1687,0.1182 -0.0382,0.0535 -0.057,0.1135 -0.057,0.1787 0,0.0876 0.03,0.1594 0.0905,0.2158 0.06,0.0559 0.1458,0.0841 0.2575,0.0841 0.1035,0 0.2029,-0.027 0.2981,-0.0817 0.0953,-0.0547 0.1705,-0.1306 0.2252,-0.2282 0.0553,-0.0976 0.0982,-0.2369 0.1294,-0.4168z"/>
  <path id="12" class="fil2" d="M117.865 237.284l0.0741 -0.3533 0.3099 0 -0.0735 0.3533 -0.3105 0zm-0.4545 2.1719l0.3822 -1.8291 0.3116 0 -0.3821 1.8291 -0.3117 0z"/>
  <path class="fil2" d="M104.808 146.921l0.3304 -0.0305 -0.0029 0.0876c0,0.0976 0.0223,0.1869 0.067,0.2681 0.0447,0.0805 0.1188,0.1434 0.2223,0.1875 0.1029,0.0441 0.2257,0.0665 0.3686,0.0665 0.2017,0 0.3563,-0.0441 0.4621,-0.1329 0.1065,-0.0882 0.1594,-0.1893 0.1594,-0.3034 0,-0.0788 -0.0282,-0.1511 -0.0841,-0.2169 -0.0576,-0.0641 -0.2146,-0.1511 -0.4704,-0.2617 -0.1987,-0.0858 -0.3339,-0.1523 -0.4062,-0.1981 -0.1141,-0.0747 -0.1976,-0.1558 -0.2517,-0.2434 -0.0541,-0.0882 -0.0811,-0.1882 -0.0811,-0.3011 0,-0.1293 0.0359,-0.2469 0.107,-0.351 0.0711,-0.1046 0.1752,-0.1846 0.3122,-0.2399 0.1376,-0.0546 0.2922,-0.0823 0.4645,-0.0823 0.2058,0 0.3792,0.0341 0.5203,0.1035 0.1411,0.0688 0.2434,0.1605 0.3075,0.2752 0.0635,0.1152 0.0953,0.2246 0.0953,0.3292 0,0.0106 -0.0006,0.0277 -0.0018,0.0518l-0.3251 0.0258c0,-0.0711 -0.0065,-0.127 -0.0194,-0.1669 -0.023,-0.0706 -0.0582,-0.1294 -0.1065,-0.1776 -0.0482,-0.0482 -0.1146,-0.087 -0.1993,-0.1164 -0.0841,-0.0294 -0.1787,-0.0441 -0.2828,-0.0441 -0.184,0 -0.3269,0.0417 -0.4292,0.124 -0.0782,0.0635 -0.117,0.147 -0.117,0.2517 0,0.0623 0.0159,0.1176 0.0482,0.1664 0.0324,0.0488 0.09,0.0964 0.1741,0.1434 0.0593,0.0335 0.201,0.0994 0.425,0.1982 0.1817,0.0805 0.307,0.1434 0.3757,0.1899 0.0918,0.0605 0.1623,0.1346 0.2117,0.2211 0.0494,0.0864 0.0741,0.1852 0.0741,0.2951 0,0.137 -0.0412,0.2628 -0.1247,0.3786 -0.0834,0.1153 -0.1981,0.2046 -0.3451,0.2676 -0.147,0.0635 -0.3157,0.0946 -0.505,0.0946 -0.2858,0 -0.5192,-0.0623 -0.7003,-0.1869 -0.1805,-0.1247 -0.2716,-0.3487 -0.2728,-0.6727z"/>
  <path id="1" class="fil2" d="M108.373 147.115l0.3033 0.0312c-0.0435,0.1505 -0.144,0.2934 -0.3004,0.4292 -0.157,0.1352 -0.3439,0.2029 -0.5609,0.2029 -0.1352,0 -0.2599,-0.0312 -0.3728,-0.0935 -0.1128,-0.0629 -0.1993,-0.1541 -0.2587,-0.2734 -0.0588,-0.1194 -0.0881,-0.2552 -0.0881,-0.4081 0,-0.1999 0.0458,-0.3933 0.1381,-0.5814 0.0929,-0.1876 0.2123,-0.3269 0.3593,-0.4187 0.1469,-0.0911 0.3063,-0.137 0.4774,-0.137 0.2181,0 0.3921,0.0682 0.5227,0.2035 0.1305,0.1358 0.1952,0.3204 0.1952,0.5544 0,0.09 -0.0077,0.1817 -0.0241,0.2758l-1.347 0c-0.0042,0.0358 -0.0065,0.0676 -0.0065,0.0964 0,0.1711 0.0394,0.3016 0.1176,0.3921 0.0788,0.09 0.1752,0.1353 0.2887,0.1353 0.107,0 0.2116,-0.0353 0.3151,-0.1053 0.1035,-0.0699 0.184,-0.1711 0.2411,-0.3034zm-0.9061 -0.4527l1.0266 0c0.0012,-0.0323 0.0018,-0.0552 0.0018,-0.0688 0,-0.1564 -0.0388,-0.2763 -0.117,-0.3592 -0.0782,-0.0835 -0.1788,-0.1252 -0.3017,-0.1252 -0.1328,0 -0.2545,0.0464 -0.3639,0.1381 -0.1099,0.0918 -0.1917,0.2299 -0.2458,0.4151z"/>
  <path id="12" class="fil2" d="M108.992 147.737l0.3828 -1.8291 0.2751 0 -0.077 0.3733c0.0941,-0.1411 0.1858,-0.2457 0.2763,-0.3133 0.09,-0.0677 0.1823,-0.1018 0.2764,-0.1018 0.0617,0 0.1381,0.0224 0.2293,0.0677l-0.1276 0.2892c-0.0541,-0.0394 -0.1135,-0.0588 -0.1776,-0.0588 -0.1087,0 -0.221,0.0612 -0.3357,0.1829 -0.1152,0.1217 -0.2052,0.3404 -0.2705,0.6561l-0.1552 0.7338 -0.2963 0z"/>
  <path id="123" class="fil2" d="M111.429 147.071l0.3116 0.0329c-0.0782,0.2287 -0.1893,0.398 -0.3333,0.5092 -0.1441,0.1105 -0.3081,0.1658 -0.4916,0.1658 -0.1987,0 -0.3598,-0.0641 -0.4833,-0.1929 -0.1234,-0.1288 -0.1852,-0.3081 -0.1852,-0.5391 0,-0.1999 0.0394,-0.3963 0.1188,-0.5892 0.0794,-0.1928 0.1929,-0.3392 0.3404,-0.4398 0.1476,-0.1005 0.3158,-0.1511 0.5057,-0.1511 0.1963,0 0.3516,0.0559 0.4662,0.1664 0.1152,0.1112 0.1723,0.2576 0.1723,0.4404l-0.3063 0.0206c-0.0012,-0.1164 -0.0347,-0.207 -0.1006,-0.2722 -0.0664,-0.0653 -0.1534,-0.0982 -0.261,-0.0982 -0.1253,0 -0.234,0.0394 -0.3258,0.1187 -0.0917,0.0794 -0.164,0.1994 -0.2163,0.361 -0.0523,0.1611 -0.0782,0.3164 -0.0782,0.4657 0,0.1564 0.0347,0.2734 0.1035,0.3516 0.0687,0.0782 0.154,0.117 0.2545,0.117 0.1012,0 0.1982,-0.0382 0.2905,-0.1152 0.0923,-0.0771 0.1652,-0.1941 0.2181,-0.3516z"/>
  <path id="1234" class="fil2" d="M111.93 147.737l0.5274 -2.5252 0.3116 0 -0.2017 0.9695c0.1159,-0.1123 0.224,-0.1929 0.324,-0.2417 0.1,-0.0488 0.2028,-0.0735 0.3081,-0.0735 0.1517,0 0.2693,0.04 0.3533,0.12 0.0841,0.0799 0.1259,0.1852 0.1259,0.3163 0,0.0641 -0.0183,0.1823 -0.0553,0.3545l-0.2258 1.0801 -0.3116 0 0.2328 -1.1077c0.033,-0.1605 0.05,-0.2616 0.05,-0.3028 0,-0.06 -0.0212,-0.1088 -0.0623,-0.1464 -0.0412,-0.0382 -0.1011,-0.057 -0.1793,-0.057 -0.1123,0 -0.2199,0.0294 -0.3216,0.0888 -0.1023,0.0588 -0.1829,0.1399 -0.2405,0.2428 -0.0582,0.1029 -0.1111,0.2681 -0.1593,0.4968l-0.1635 0.7855 -0.3122 0z"/>
  <path id="12345" class="fil2" d="M113.892 147.737l0.5274 -2.5252 0.3116 0 -0.2017 0.9695c0.1159,-0.1123 0.224,-0.1929 0.324,-0.2417 0.1,-0.0488 0.2028,-0.0735 0.3081,-0.0735 0.1517,0 0.2693,0.04 0.3533,0.12 0.0841,0.0799 0.1259,0.1852 0.1259,0.3163 0,0.0641 -0.0183,0.1823 -0.0553,0.3545l-0.2258 1.0801 -0.3116 0 0.2328 -1.1077c0.033,-0.1605 0.05,-0.2616 0.05,-0.3028 0,-0.06 -0.0212,-0.1088 -0.0623,-0.1464 -0.0412,-0.0382 -0.1011,-0.057 -0.1793,-0.057 -0.1123,0 -0.2199,0.0294 -0.3216,0.0888 -0.1023,0.0588 -0.1829,0.1399 -0.2405,0.2428 -0.0582,0.1029 -0.1111,0.2681 -0.1593,0.4968l-0.1635 0.7855 -0.3122 0z"/>
  <path id="123456" class="fil2" d="M116.297 145.565l0.0741 -0.3533 0.3099 0 -0.0735 0.3533 -0.3105 0zm-0.4545 2.1719l0.3822 -1.8291 0.3116 0 -0.3821 1.8291 -0.3117 0z"/>
  <path id="1234567" class="fil2" d="M116.484 148.438l0.5292 -2.5299 0.2875 0 -0.0535 0.2546c0.107,-0.1112 0.2028,-0.1888 0.2869,-0.2317 0.0847,-0.0429 0.1741,-0.0647 0.2681,-0.0647 0.1747,0 0.3193,0.0635 0.4339,0.1905 0.1147,0.127 0.1723,0.3087 0.1723,0.5451 0,0.1911 -0.0317,0.3645 -0.0947,0.5215 -0.0635,0.1564 -0.1405,0.2828 -0.2328,0.378 -0.0917,0.0953 -0.1846,0.1652 -0.2787,0.2099 -0.094,0.0447 -0.1911,0.0671 -0.2892,0.0671 -0.2199,0 -0.3899,-0.1112 -0.5104,-0.334l-0.2064 0.9936 -0.3122 0zm0.6168 -1.4481c0,0.1364 0.01,0.2311 0.0294,0.284 0.0288,0.0747 0.0758,0.1346 0.1411,0.1811 0.0659,0.0458 0.1417,0.0688 0.2275,0.0688 0.1794,0 0.324,-0.1012 0.434,-0.3022 0.1105,-0.2017 0.1658,-0.4075 0.1658,-0.618 0,-0.1546 -0.0371,-0.2745 -0.1112,-0.3592 -0.074,-0.0841 -0.1664,-0.1264 -0.2769,-0.1264 -0.0788,0 -0.1523,0.0212 -0.2205,0.0629 -0.0676,0.0417 -0.1305,0.1047 -0.1881,0.1876 -0.0582,0.0834 -0.1064,0.1852 -0.1441,0.3057 -0.0376,0.1205 -0.057,0.2258 -0.057,0.3157z"/>
  <polygon class="fil3 str1" points="151.029,268.767 173.608,268.767 173.608,284.696 151.029,284.696 "/>
  <path class="fil4" d="M175.395 283.766c0,-0.1745 0.0447,-0.3448 0.1341,-0.5113 0.0898,-0.166 0.2178,-0.2958 0.3848,-0.3885 0.1665,-0.0927 0.3405,-0.1392 0.5216,-0.1392 0.1792,0 0.3514,0.0456 0.5165,0.1373 0.1655,0.0913 0.2939,0.2197 0.3852,0.3843 0.0917,0.1651 0.1373,0.3373 0.1373,0.5174 0,0.1802 -0.0456,0.3528 -0.1373,0.5174 -0.0913,0.1651 -0.2197,0.2935 -0.3852,0.3852 -0.1651,0.0922 -0.3373,0.1379 -0.5165,0.1379 -0.1811,0 -0.3551,-0.0466 -0.5216,-0.1397 -0.167,-0.0932 -0.295,-0.223 -0.3848,-0.3895 -0.0894,-0.166 -0.1341,-0.3368 -0.1341,-0.5113zm0.1722 0c0,0.1463 0.0376,0.2884 0.1124,0.4266 0.0748,0.1383 0.182,0.2465 0.3208,0.3246 0.1392,0.0781 0.2841,0.1171 0.4351,0.1171 0.1496,0 0.293,-0.0386 0.4304,-0.1152 0.1373,-0.0767 0.2446,-0.1839 0.3212,-0.3218 0.0767,-0.1378 0.1153,-0.2812 0.1153,-0.4313 0,-0.1496 -0.0386,-0.2935 -0.1153,-0.4313 -0.0766,-0.1378 -0.1839,-0.2446 -0.3212,-0.3208 -0.1374,-0.0762 -0.2808,-0.1143 -0.4304,-0.1143 -0.151,0 -0.2959,0.0386 -0.4351,0.1162 -0.1388,0.0776 -0.246,0.1858 -0.3208,0.3245 -0.0748,0.1388 -0.1124,0.2808 -0.1124,0.4257zm1.0362 -0.3335l0.0499 -0.1693c0.1147,0.0277 0.2065,0.0861 0.2747,0.1754 0.0686,0.0899 0.1025,0.1985 0.1025,0.326 0,0.1618 -0.0522,0.293 -0.1571,0.3942 -0.1044,0.1011 -0.2498,0.1519 -0.4351,0.1519 -0.1213,0 -0.2267,-0.023 -0.3165,-0.0691 -0.0894,-0.0461 -0.1571,-0.1115 -0.2023,-0.1962 -0.0456,-0.0851 -0.0682,-0.1825 -0.0682,-0.2916 0,-0.1223 0.0292,-0.2239 0.0875,-0.3048 0.0583,-0.0804 0.1373,-0.1359 0.2375,-0.1651l0.04 0.1641c-0.0682,0.0273 -0.1199,0.0683 -0.1566,0.1219 -0.0363,0.0536 -0.0541,0.1166 -0.0541,0.1895 0,0.1054 0.0376,0.1924 0.1129,0.2611 0.0752,0.0682 0.1834,0.1025 0.3236,0.1025 0.1406,0 0.2469,-0.0324 0.3194,-0.0969 0.0719,-0.0649 0.1081,-0.1486 0.1081,-0.2516 0,-0.0828 -0.024,-0.1552 -0.0719,-0.2178 -0.0475,-0.0626 -0.1124,-0.1039 -0.1943,-0.1242z"/>
  <path id="1" class="fil4" d="M177.45 280.811l-0.1849 0c0.1454,0.0927 0.2178,0.2291 0.2178,0.4093 0,0.1166 -0.032,0.2238 -0.0964,0.3217 -0.064,0.0978 -0.1538,0.1735 -0.2695,0.2276 -0.1153,0.0537 -0.2474,0.0805 -0.3975,0.0805 -0.1458,0 -0.2784,-0.0245 -0.3974,-0.0729 -0.119,-0.049 -0.2103,-0.1219 -0.2733,-0.2192 -0.0635,-0.0974 -0.0955,-0.2065 -0.0955,-0.3269 0,-0.088 0.0188,-0.1665 0.056,-0.2352 0.0371,-0.0692 0.0856,-0.1251 0.1453,-0.1684l-0.7248 0 0 -0.2465 2.0202 0 0 0.23zm-0.7305 0.7841c0.1877,0 0.3279,-0.0395 0.4205,-0.1185 0.0927,-0.079 0.1393,-0.1722 0.1393,-0.2799 0,-0.1081 -0.0447,-0.2003 -0.1332,-0.2761 -0.0884,-0.0757 -0.2239,-0.1138 -0.4059,-0.1138 -0.2004,0 -0.3471,0.0386 -0.4407,0.1157 -0.0941,0.0772 -0.1407,0.1722 -0.1407,0.2855 0,0.1101 0.0452,0.2023 0.135,0.2761 0.0899,0.0739 0.2319,0.111 0.4257,0.111z"/>
  <polygon id="12" class="fil4" points="176.844,280.288 176.594,280.288 176.594,279.525 176.844,279.525 "/>
  <path id="123" class="fil4" d="M177.45 279.251l-1.4633 0 0 -0.2215 0.2051 0c-0.0715,-0.0461 -0.1294,-0.1073 -0.1727,-0.1835 -0.0437,-0.0762 -0.0658,-0.1632 -0.0658,-0.2605 0,-0.1082 0.0226,-0.1971 0.0677,-0.2663 0.0452,-0.0696 0.1077,-0.1185 0.1886,-0.1467 -0.1707,-0.1162 -0.2563,-0.2667 -0.2563,-0.452 0,-0.1454 0.0404,-0.2569 0.1209,-0.3349 0.0804,-0.0781 0.2041,-0.1172 0.3711,-0.1172l1.0047 0 0 0.2465 -0.9219 0c-0.0993,0 -0.1708,0.008 -0.2145,0.024 -0.0433,0.0165 -0.0786,0.0456 -0.1054,0.0875 -0.0263,0.0423 -0.0399,0.0922 -0.0399,0.1491 0,0.103 0.0343,0.1881 0.103,0.2563 0.0682,0.0678 0.1778,0.1021 0.3283,0.1021l0.8504 0 0 0.2479 -0.9506 0c-0.1105,0 -0.1933,0.0202 -0.2484,0.0607 -0.055,0.0404 -0.0827,0.1063 -0.0827,0.1985 0,0.0696 0.0183,0.134 0.0555,0.1933 0.0366,0.0593 0.0903,0.1025 0.1608,0.1289 0.071,0.0268 0.1731,0.04 0.3062,0.04l0.7592 0 0 0.2478z"/>
  <path id="1234" class="fil4" d="M177.269 275.945c0.0781,0.0922 0.1331,0.1806 0.1655,0.2653 0.032,0.0851 0.048,0.1764 0.048,0.2737 0,0.1609 -0.039,0.2841 -0.1176,0.3707 -0.0785,0.0861 -0.1792,0.1293 -0.301,0.1293 -0.072,0 -0.1373,-0.016 -0.1966,-0.0489 -0.0593,-0.0324 -0.1068,-0.0752 -0.1425,-0.1279 -0.0358,-0.0532 -0.0631,-0.1124 -0.0814,-0.1788 -0.0127,-0.0484 -0.0254,-0.1218 -0.0372,-0.2201 -0.024,-0.2004 -0.0522,-0.3481 -0.0856,-0.4426 -0.0338,-0.001 -0.0555,-0.0014 -0.0644,-0.0014 -0.1011,0 -0.1726,0.0235 -0.2136,0.0705 -0.0564,0.0631 -0.0842,0.1576 -0.0842,0.2823 0,0.1166 0.0203,0.2027 0.0612,0.2587 0.0409,0.0555 0.1133,0.0964 0.2173,0.1232l-0.0334 0.2422c-0.1035,-0.0221 -0.1877,-0.0583 -0.2512,-0.1086 -0.0639,-0.0504 -0.1133,-0.1237 -0.1477,-0.2192 -0.0343,-0.0955 -0.0517,-0.206 -0.0517,-0.3321 0,-0.1251 0.015,-0.2262 0.0442,-0.3043 0.0296,-0.0781 0.0663,-0.1355 0.111,-0.1726 0.0447,-0.0367 0.1007,-0.0621 0.1689,-0.0772 0.0423,-0.008 0.1185,-0.0122 0.2286,-0.0122l0.3306 0c0.231,0 0.3768,-0.0052 0.4375,-0.016 0.0611,-0.0104 0.1199,-0.0315 0.1759,-0.0626l0 0.2592c-0.0513,0.0254 -0.1115,0.0423 -0.1806,0.0494zm-0.5541 0.0207c0.0371,0.0903 0.0682,0.2253 0.0941,0.405 0.0145,0.102 0.031,0.1745 0.0493,0.2163 0.0184,0.0424 0.0452,0.0753 0.081,0.0979 0.0352,0.023 0.0743,0.0348 0.1175,0.0348 0.0664,0 0.1214,-0.0254 0.1656,-0.0753 0.0438,-0.0498 0.0659,-0.1232 0.0659,-0.2196 0,-0.0955 -0.0207,-0.1807 -0.0626,-0.255 -0.0419,-0.0743 -0.0992,-0.1293 -0.1717,-0.1641 -0.056,-0.0268 -0.1387,-0.04 -0.2479,-0.04l-0.0912 0z"/>
  <path id="12345" class="fil4" d="M178.011 275.331l-2.024 0 0 -0.2257 0.19 0c-0.0743,-0.0532 -0.1303,-0.1134 -0.1674,-0.1807 -0.0372,-0.0668 -0.056,-0.1481 -0.056,-0.2436 0,-0.1251 0.0324,-0.2352 0.0964,-0.3307 0.0645,-0.0959 0.1552,-0.1679 0.2724,-0.2163 0.1171,-0.049 0.2455,-0.0734 0.3852,-0.0734 0.1496,0 0.2846,0.0268 0.4045,0.0809 0.1199,0.0536 0.2117,0.1317 0.2756,0.2342 0.0635,0.1026 0.0955,0.2103 0.0955,0.3232 0,0.0827 -0.0174,0.1566 -0.0522,0.2224 -0.0348,0.0659 -0.079,0.1195 -0.1322,0.1619l0.7122 0 0 0.2478zm-1.2841 -0.2243c0.1881,0 0.3274,-0.0381 0.4177,-0.1143 0.0898,-0.0762 0.135,-0.1689 0.135,-0.2771 0,-0.11 -0.0466,-0.2046 -0.1402,-0.2831 -0.0931,-0.0786 -0.2375,-0.1181 -0.4332,-0.1181 -0.1868,0 -0.326,0.0386 -0.4191,0.1152 -0.0927,0.0767 -0.1392,0.1684 -0.1392,0.2747 0,0.1059 0.0493,0.1995 0.1481,0.2808 0.0988,0.0814 0.2427,0.1219 0.4309,0.1219z"/>
  <path id="123456" class="fil4" d="M177.013 273.86l-0.0385 -0.2451c0.0983,-0.0136 0.1735,-0.0522 0.2262,-0.1152 0.0522,-0.0626 0.0786,-0.1505 0.0786,-0.2639 0,-0.1138 -0.0236,-0.1985 -0.0697,-0.2535 -0.0465,-0.0551 -0.1011,-0.0828 -0.1632,-0.0828 -0.0564,0 -0.1002,0.0245 -0.1326,0.0734 -0.0221,0.0338 -0.0499,0.1185 -0.0837,0.2535 -0.0461,0.1816 -0.0857,0.3081 -0.1195,0.3782 -0.0334,0.0701 -0.08,0.1237 -0.1392,0.1599 -0.0593,0.0362 -0.1247,0.0546 -0.1962,0.0546 -0.0654,0 -0.1256,-0.0151 -0.1811,-0.0452 -0.056,-0.0296 -0.102,-0.0705 -0.1387,-0.1218 -0.0283,-0.0386 -0.0527,-0.0913 -0.0725,-0.1576 -0.0197,-0.0668 -0.0296,-0.1383 -0.0296,-0.2145 0,-0.1147 0.0169,-0.2154 0.0499,-0.3024 0.0329,-0.087 0.0776,-0.151 0.134,-0.1924 0.0569,-0.0414 0.1322,-0.0696 0.2267,-0.0851l0.0334 0.2422c-0.0752,0.0113 -0.134,0.0433 -0.1764,0.096 -0.0423,0.0526 -0.0635,0.1274 -0.0635,0.2238 0,0.1139 0.0188,0.1952 0.0565,0.2437 0.0376,0.0489 0.0818,0.0734 0.1321,0.0734 0.0325,0 0.0612,-0.0104 0.0871,-0.0306 0.0268,-0.0202 0.0484,-0.0517 0.0663,-0.095 0.0089,-0.0249 0.0301,-0.0979 0.063,-0.2192 0.0471,-0.1755 0.0852,-0.2977 0.1153,-0.3669 0.0296,-0.0696 0.0733,-0.1242 0.1302,-0.1637 0.057,-0.0395 0.1275,-0.0592 0.2122,-0.0592 0.0828,0 0.1604,0.0244 0.2338,0.0724 0.0729,0.0484 0.1293,0.1181 0.1693,0.2088 0.04,0.0908 0.0597,0.1938 0.0597,0.3086 0,0.1905 -0.0395,0.3354 -0.1185,0.4351 -0.079,0.0997 -0.1961,0.1632 -0.3514,0.1905z"/>
  <polygon id="1234567" class="fil4" points="177.45,272.28 177.167,272.28 177.167,271.997 177.45,271.997 "/>
  <path id="12345678" class="fil4" d="M176.914 270.611l0.032 -0.2437c0.1679,0.0264 0.2996,0.0946 0.3946,0.2047 0.095,0.1095 0.1425,0.2445 0.1425,0.4045 0,0.1999 -0.0654,0.3612 -0.1961,0.4826 -0.1308,0.1218 -0.3185,0.1829 -0.563,0.1829 -0.1581,0 -0.2964,-0.0263 -0.4149,-0.0785 -0.1185,-0.0527 -0.2074,-0.1322 -0.2667,-0.2394 -0.0593,-0.1068 -0.0889,-0.2235 -0.0889,-0.349 0,-0.159 0.0404,-0.2893 0.1209,-0.39 0.0804,-0.1011 0.1942,-0.166 0.3424,-0.1947l0.0372 0.2413c-0.0983,0.023 -0.1722,0.0635 -0.222,0.1218 -0.0494,0.0583 -0.0744,0.1289 -0.0744,0.2117 0,0.1251 0.0447,0.2267 0.1346,0.3048 0.0893,0.0781 0.2309,0.1171 0.4247,0.1171 0.1966,0 0.3396,-0.0376 0.429,-0.1134 0.0889,-0.0752 0.1336,-0.1735 0.1336,-0.2949 0,-0.0973 -0.0301,-0.1783 -0.0899,-0.2436 -0.0597,-0.0654 -0.1514,-0.1068 -0.2756,-0.1242z"/>
  <path id="123456789" class="fil4" d="M176.718 270.247c-0.2709,0 -0.4718,-0.0753 -0.6021,-0.2262 -0.1081,-0.1256 -0.1627,-0.279 -0.1627,-0.4601 0,-0.2013 0.0658,-0.3659 0.198,-0.4934 0.1317,-0.1279 0.3138,-0.1914 0.5461,-0.1914 0.1886,0 0.3368,0.0282 0.4445,0.0846 0.1082,0.0565 0.1919,0.1388 0.2517,0.2465 0.0597,0.1082 0.0893,0.2258 0.0893,0.3537 0,0.2046 -0.0654,0.3702 -0.1971,0.4967 -0.1312,0.1266 -0.3203,0.1896 -0.5677,0.1896zm0 -0.2549c0.1877,0 0.3279,-0.041 0.421,-0.1228 0.0936,-0.0819 0.1402,-0.1849 0.1402,-0.3086 0,-0.1232 -0.0471,-0.2257 -0.1407,-0.3076 -0.0936,-0.0814 -0.2366,-0.1223 -0.4285,-0.1223 -0.1811,0 -0.3184,0.0409 -0.4116,0.1233 -0.0931,0.0823 -0.1397,0.1843 -0.1397,0.3066 0,0.1237 0.0466,0.2267 0.1393,0.3086 0.0926,0.0818 0.2328,0.1228 0.42,0.1228z"/>
  <path id="12345678910" class="fil4" d="M177.45 268.585l-1.4633 0 0 -0.2215 0.2051 0c-0.0715,-0.0461 -0.1294,-0.1073 -0.1727,-0.1835 -0.0437,-0.0762 -0.0658,-0.1632 -0.0658,-0.2605 0,-0.1082 0.0226,-0.1971 0.0677,-0.2663 0.0452,-0.0696 0.1077,-0.1185 0.1886,-0.1467 -0.1707,-0.1162 -0.2563,-0.2667 -0.2563,-0.452 0,-0.1454 0.0404,-0.2569 0.1209,-0.3349 0.0804,-0.0781 0.2041,-0.1172 0.3711,-0.1172l1.0047 0 0 0.2465 -0.9219 0c-0.0993,0 -0.1708,0.008 -0.2145,0.024 -0.0433,0.0165 -0.0786,0.0456 -0.1054,0.0875 -0.0263,0.0423 -0.0399,0.0922 -0.0399,0.1491 0,0.103 0.0343,0.1881 0.103,0.2563 0.0682,0.0678 0.1778,0.1021 0.3283,0.1021l0.8504 0 0 0.2479 -0.9506 0c-0.1105,0 -0.1933,0.0202 -0.2484,0.0607 -0.055,0.0404 -0.0827,0.1063 -0.0827,0.1985 0,0.0696 0.0183,0.134 0.0555,0.1933 0.0366,0.0593 0.0903,0.1025 0.1608,0.1289 0.071,0.0268 0.1731,0.04 0.3062,0.04l0.7592 0 0 0.2478z"/>
  <g id="_461264936">
   <g>
    <polygon id="_461259176" class="fil5 str2" points="152.43,274.804 157.426,274.804 157.426,275.796 152.43,275.796 "/>
    <polygon id="_461265296" class="fil6 str2" points="157.426,274.804 162.423,274.804 162.423,275.796 157.426,275.796 "/>
    <polygon id="_461255552" class="fil5 str2" points="162.423,274.804 167.419,274.804 167.419,275.796 162.423,275.796 "/>
    <polygon id="_461262872" class="fil6 str2" points="167.42,274.804 172.417,274.804 172.417,275.796 167.42,275.796 "/>
    <polygon id="_461253560" class="fil5 str2" points="160.439,277.794 168.43,277.794 168.43,278.785 160.439,278.785 "/>
    <polygon id="_461250656" class="fil6 str2" points="152.447,277.794 160.439,277.794 160.439,278.785 152.447,278.785 "/>
   </g>
   <path id="_461251448" class="fil7" d="M159.493 272.417l-0.1635 0.4498 -1.3782 0 0 -0.0635c0.4052,-0.3698 0.6909,-0.672 0.8561,-0.9061 0.1652,-0.2346 0.2481,-0.4486 0.2481,-0.6426 0,-0.1482 -0.0452,-0.2699 -0.1364,-0.3651 -0.0905,-0.0953 -0.1987,-0.1429 -0.3251,-0.1429 -0.1152,0 -0.2181,0.0335 -0.3093,0.1005 -0.0911,0.0671 -0.1587,0.1658 -0.2022,0.2952l-0.0641 0c0.0288,-0.2123 0.1023,-0.3751 0.2216,-0.4892 0.1188,-0.1135 0.267,-0.1705 0.4451,-0.1705 0.1894,0 0.3475,0.0611 0.4745,0.1829 0.127,0.1217 0.1905,0.2651 0.1905,0.4303 0,0.1182 -0.0276,0.237 -0.0829,0.3552 -0.0847,0.1858 -0.2228,0.3827 -0.4133,0.5909 -0.2858,0.3122 -0.4645,0.5003 -0.5357,0.565l0.6098 0c0.124,0 0.211,-0.0047 0.261,-0.0141 0.05,-0.0088 0.0953,-0.0276 0.1352,-0.0558 0.04,-0.0283 0.0753,-0.0683 0.1053,-0.12l0.0635 0z"/>
   <path id="_4612514481" class="fil7" d="M159.767 271.712c0,-0.2663 0.04,-0.4956 0.1205,-0.6879 0.0806,-0.1923 0.187,-0.3357 0.3205,-0.4298 0.1034,-0.0747 0.2099,-0.1123 0.3204,-0.1123 0.1787,0 0.3399,0.0917 0.4821,0.274 0.1782,0.2264 0.267,0.5327 0.267,0.9202 0,0.271 -0.0388,0.5009 -0.117,0.6902 -0.0782,0.1899 -0.1776,0.3275 -0.2987,0.4128 -0.1211,0.0858 -0.2381,0.1282 -0.351,0.1282 -0.2223,0 -0.4081,-0.1312 -0.5562,-0.3946 -0.1253,-0.2216 -0.1876,-0.4886 -0.1876,-0.8008zm0.3375 0.0429c0,0.3217 0.0394,0.5845 0.1188,0.7873 0.0652,0.1711 0.1634,0.257 0.2928,0.257 0.0623,0 0.1264,-0.0283 0.1928,-0.0835 0.067,-0.0559 0.1176,-0.1494 0.1517,-0.2799 0.0529,-0.1975 0.0794,-0.4762 0.0794,-0.8355 0,-0.2663 -0.0277,-0.4886 -0.0829,-0.6667 -0.0412,-0.1323 -0.0947,-0.2258 -0.1599,-0.2811 -0.0471,-0.0376 -0.1041,-0.0564 -0.1706,-0.0564 -0.0782,0 -0.1475,0.0347 -0.2087,0.1046 -0.0823,0.0953 -0.1387,0.2452 -0.1687,0.4498 -0.03,0.2046 -0.0447,0.4057 -0.0447,0.6044z"/>
   <path id="_46125144812" class="fil7" d="M162.862 270.417l0 1.5693 0.4016 -0.3651c0.0852,-0.0782 0.1346,-0.1276 0.1481,-0.1482 0.0095,-0.0141 0.0136,-0.0276 0.0136,-0.0411 0,-0.0236 -0.0094,-0.043 -0.0283,-0.06 -0.0188,-0.0165 -0.0499,-0.0259 -0.094,-0.0282l0 -0.0553 0.6855 0 0 0.0553c-0.094,0.0023 -0.1722,0.0164 -0.2346,0.0429 -0.0629,0.0264 -0.1317,0.0735 -0.2063,0.1417l-0.4046 0.3733 0.4046 0.5116c0.1129,0.1417 0.1887,0.231 0.2275,0.2693 0.0553,0.0535 0.1035,0.0887 0.1446,0.1046 0.0289,0.0118 0.0788,0.0177 0.15,0.0177l0 0.0617 -0.7667 0 0 -0.0617c0.0441,-0.0012 0.0735,-0.0083 0.0888,-0.02 0.0158,-0.0124 0.0235,-0.0288 0.0235,-0.0512 0,-0.0264 -0.023,-0.0688 -0.0688,-0.127l-0.4845 -0.6185 0 0.5233c0,0.1023 0.0076,0.1699 0.0218,0.2016 0.0141,0.0324 0.0346,0.0553 0.0611,0.0688 0.0265,0.0141 0.0841,0.0218 0.1723,0.023l0 0.0617 -0.8026 0 0 -0.0617c0.0805,0 0.1405,-0.01 0.1805,-0.0294 0.0241,-0.013 0.0429,-0.0324 0.0553,-0.0588 0.017,-0.0377 0.0258,-0.1035 0.0258,-0.1964l0 -1.4364c0,-0.1829 -0.0041,-0.2946 -0.0117,-0.3352 -0.0082,-0.0405 -0.0218,-0.0687 -0.04,-0.0846 -0.0182,-0.0153 -0.0423,-0.023 -0.0723,-0.023 -0.0241,0 -0.06,0.0095 -0.1082,0.0294l-0.0294 -0.0605 0.4686 -0.1929 0.0788 0z"/>
   <path id="_461251448123" class="fil7" d="M164.628 271.578c0.1152,-0.1153 0.1828,-0.1811 0.2034,-0.1982 0.0517,-0.0441 0.1076,-0.0776 0.167,-0.1017 0.06,-0.0241 0.1187,-0.0365 0.1775,-0.0365 0.0988,0 0.1841,0.0289 0.2552,0.0865 0.0712,0.057 0.1188,0.1405 0.1429,0.2499 0.1182,-0.1382 0.2181,-0.2288 0.2999,-0.2717 0.0811,-0.0429 0.1652,-0.0647 0.251,-0.0647 0.0841,0 0.1582,0.0218 0.2234,0.0647 0.0647,0.0429 0.1159,0.1135 0.1541,0.2111 0.0253,0.0664 0.0376,0.1711 0.0376,0.3134l0 0.6791c0,0.0988 0.0077,0.1664 0.0224,0.2028 0.0117,0.0253 0.0329,0.0471 0.0641,0.0647 0.0311,0.0177 0.0811,0.0271 0.1517,0.0271l0 0.0617 -0.7791 0 0 -0.0617 0.0329 0c0.0676,0 0.1206,-0.0136 0.1588,-0.04 0.0264,-0.0182 0.0452,-0.0476 0.0564,-0.0876 0.0047,-0.0194 0.0071,-0.0753 0.0071,-0.167l0 -0.6791c0,-0.1288 -0.0153,-0.2193 -0.0465,-0.2722 -0.0447,-0.0735 -0.1164,-0.11 -0.2152,-0.11 -0.0611,0 -0.1223,0.0153 -0.1834,0.0453 -0.0618,0.0306 -0.1358,0.087 -0.2234,0.1699l-0.0036 0.0188 0.0036 0.0741 0 0.7532c0,0.1076 0.0064,0.1746 0.0182,0.2011 0.0123,0.0264 0.0347,0.0488 0.0682,0.0664 0.0329,0.0177 0.0899,0.0271 0.1705,0.0271l0 0.0617 -0.7979 0 0 -0.0617c0.0876,0 0.1476,-0.0106 0.1805,-0.0312 0.0324,-0.0206 0.0553,-0.0517 0.0676,-0.0929 0.0059,-0.02 0.0089,-0.0764 0.0089,-0.1705l0 -0.6791c0,-0.1288 -0.0188,-0.2211 -0.0571,-0.2769 -0.0505,-0.0735 -0.1211,-0.1106 -0.2116,-0.1106 -0.0624,0 -0.1235,0.0165 -0.1847,0.05 -0.0952,0.0506 -0.1687,0.1076 -0.2204,0.1705l0 0.8461c0,0.1029 0.0076,0.1705 0.0217,0.2011 0.0141,0.0311 0.0359,0.0547 0.0635,0.0699 0.0282,0.0153 0.0853,0.0236 0.1717,0.0236l0 0.0617 -0.7802 0 0 -0.0617c0.0723,0 0.1229,-0.0083 0.1517,-0.0236 0.0282,-0.0152 0.0505,-0.0399 0.0652,-0.074 0.0147,-0.0341 0.0224,-0.0994 0.0224,-0.197l0 -0.6033c0,-0.1734 -0.0053,-0.2851 -0.0153,-0.3357 -0.0082,-0.0382 -0.0212,-0.0641 -0.0382,-0.0782 -0.0171,-0.0147 -0.0406,-0.0217 -0.0706,-0.0217 -0.0323,0 -0.0705,0.0088 -0.1152,0.0258l-0.0259 -0.0623 0.4751 -0.1929 0.0741 0 0 0.3364z"/>
   <path id="_461258000" class="fil7" d="M156.795 280.459l0.5686 -0.2775 0.057 0 0 1.9726c0,0.1306 0.0053,0.2123 0.0159,0.2446 0.0112,0.0318 0.0341,0.0565 0.0682,0.0741 0.0347,0.0171 0.1047,0.027 0.2105,0.0294l0 0.0635 -0.879 0 0 -0.0635c0.1105,-0.0024 0.1817,-0.0118 0.214,-0.0288 0.0318,-0.0165 0.0541,-0.0388 0.067,-0.067 0.0124,-0.0283 0.0189,-0.1123 0.0189,-0.2523l0 -1.2612c0,-0.1699 -0.0059,-0.2787 -0.0171,-0.3269 -0.0082,-0.037 -0.0229,-0.0641 -0.0441,-0.0811 -0.0212,-0.0171 -0.0464,-0.0259 -0.0764,-0.0259 -0.0424,0 -0.1017,0.0177 -0.1776,0.0535l-0.0259 -0.0535z"/>
   <path id="_4612580001" class="fil7" d="M158.273 281.411c0,-0.2663 0.04,-0.4956 0.1205,-0.6879 0.0806,-0.1923 0.187,-0.3357 0.3205,-0.4298 0.1034,-0.0747 0.2099,-0.1123 0.3204,-0.1123 0.1787,0 0.3399,0.0917 0.4821,0.274 0.1782,0.2264 0.267,0.5327 0.267,0.9202 0,0.271 -0.0388,0.5009 -0.117,0.6902 -0.0782,0.1899 -0.1776,0.3275 -0.2987,0.4128 -0.1211,0.0858 -0.2381,0.1282 -0.351,0.1282 -0.2223,0 -0.4081,-0.1312 -0.5562,-0.3946 -0.1253,-0.2216 -0.1876,-0.4886 -0.1876,-0.8008zm0.3375 0.0429c0,0.3217 0.0394,0.5845 0.1188,0.7873 0.0652,0.1711 0.1634,0.257 0.2928,0.257 0.0623,0 0.1264,-0.0283 0.1928,-0.0835 0.067,-0.0559 0.1176,-0.1494 0.1517,-0.2799 0.0529,-0.1975 0.0794,-0.4762 0.0794,-0.8355 0,-0.2663 -0.0277,-0.4886 -0.0829,-0.6667 -0.0412,-0.1323 -0.0947,-0.2258 -0.1599,-0.2811 -0.0471,-0.0376 -0.1041,-0.0564 -0.1706,-0.0564 -0.0782,0 -0.1475,0.0347 -0.2087,0.1046 -0.0823,0.0953 -0.1387,0.2452 -0.1687,0.4498 -0.03,0.2046 -0.0447,0.4057 -0.0447,0.6044z"/>
   <path id="_46125800012" class="fil7" d="M161.37 281.277c0.1152,-0.1153 0.1828,-0.1811 0.2034,-0.1982 0.0517,-0.0441 0.1076,-0.0776 0.167,-0.1017 0.06,-0.0241 0.1187,-0.0365 0.1775,-0.0365 0.0988,0 0.1841,0.0289 0.2552,0.0865 0.0712,0.057 0.1188,0.1405 0.1429,0.2499 0.1182,-0.1382 0.2181,-0.2288 0.2999,-0.2717 0.0811,-0.0429 0.1652,-0.0647 0.251,-0.0647 0.0841,0 0.1582,0.0218 0.2234,0.0647 0.0647,0.0429 0.1159,0.1135 0.1541,0.2111 0.0253,0.0664 0.0376,0.1711 0.0376,0.3134l0 0.6791c0,0.0988 0.0077,0.1664 0.0224,0.2028 0.0117,0.0253 0.0329,0.0471 0.0641,0.0647 0.0311,0.0177 0.0811,0.0271 0.1517,0.0271l0 0.0617 -0.7791 0 0 -0.0617 0.0329 0c0.0676,0 0.1206,-0.0136 0.1588,-0.04 0.0264,-0.0182 0.0452,-0.0476 0.0564,-0.0876 0.0047,-0.0194 0.0071,-0.0753 0.0071,-0.167l0 -0.6791c0,-0.1288 -0.0153,-0.2193 -0.0465,-0.2722 -0.0447,-0.0735 -0.1164,-0.11 -0.2152,-0.11 -0.0611,0 -0.1223,0.0153 -0.1834,0.0453 -0.0618,0.0306 -0.1358,0.087 -0.2234,0.1699l-0.0036 0.0188 0.0036 0.0741 0 0.7532c0,0.1076 0.0064,0.1746 0.0182,0.2011 0.0123,0.0264 0.0347,0.0488 0.0682,0.0664 0.0329,0.0177 0.0899,0.0271 0.1705,0.0271l0 0.0617 -0.7979 0 0 -0.0617c0.0876,0 0.1476,-0.0106 0.1805,-0.0312 0.0324,-0.0206 0.0553,-0.0517 0.0676,-0.0929 0.0059,-0.02 0.0089,-0.0764 0.0089,-0.1705l0 -0.6791c0,-0.1288 -0.0188,-0.2211 -0.0571,-0.2769 -0.0505,-0.0735 -0.1211,-0.1106 -0.2116,-0.1106 -0.0624,0 -0.1235,0.0165 -0.1847,0.05 -0.0952,0.0506 -0.1687,0.1076 -0.2204,0.1705l0 0.8461c0,0.1029 0.0076,0.1705 0.0217,0.2011 0.0141,0.0311 0.0359,0.0547 0.0635,0.0699 0.0282,0.0153 0.0853,0.0236 0.1717,0.0236l0 0.0617 -0.7802 0 0 -0.0617c0.0723,0 0.1229,-0.0083 0.1517,-0.0236 0.0282,-0.0152 0.0505,-0.0399 0.0652,-0.074 0.0147,-0.0341 0.0224,-0.0994 0.0224,-0.197l0 -0.6033c0,-0.1734 -0.0053,-0.2851 -0.0153,-0.3357 -0.0082,-0.0382 -0.0212,-0.0641 -0.0382,-0.0782 -0.0171,-0.0147 -0.0406,-0.0217 -0.0706,-0.0217 -0.0323,0 -0.0705,0.0088 -0.1152,0.0258l-0.0259 -0.0623 0.4751 -0.1929 0.0741 0 0 0.3364z"/>
   <path id="_461258000123" class="fil7" d="M164.047 280.116c0.0482,0 0.0894,0.0171 0.1235,0.0506 0.0335,0.0341 0.0506,0.0753 0.0506,0.1235 0,0.0482 -0.0171,0.0893 -0.0506,0.124 -0.0341,0.0341 -0.0753,0.0518 -0.1235,0.0518 -0.0482,0 -0.0893,-0.0177 -0.124,-0.0518 -0.0341,-0.0347 -0.0518,-0.0758 -0.0518,-0.124 0,-0.0482 0.0171,-0.0894 0.0512,-0.1235 0.0335,-0.0335 0.0752,-0.0506 0.1246,-0.0506zm0.1429 0.8249l0 1.2683c0,0.0988 0.0071,0.164 0.0218,0.197 0.0141,0.0329 0.0352,0.057 0.0635,0.0735 0.0282,0.0158 0.0799,0.0241 0.1546,0.0241l0 0.0617 -0.7667 0 0 -0.0617c0.077,0 0.1288,-0.0077 0.1546,-0.023 0.0265,-0.0147 0.0476,-0.0394 0.0629,-0.0741 0.0159,-0.0341 0.0236,-0.0999 0.0236,-0.1975l0 -0.6086c0,-0.1711 -0.0053,-0.2816 -0.0153,-0.3322 -0.0083,-0.037 -0.0212,-0.0623 -0.0382,-0.0764 -0.0171,-0.0147 -0.0406,-0.0217 -0.0706,-0.0217 -0.0323,0 -0.0711,0.0088 -0.117,0.0258l-0.0241 -0.0623 0.4751 -0.1929 0.0758 0z"/>
  </g>
  <rect class="fil8 str3" x="10" y="10" width="169.564" height="277"/>
 </g>
</svg>